<svg width="68" height="64" viewBox="0 0 68 64" fill="none" xmlns="http://www.w3.org/2000/svg">
    <line x1="27.8008" y1="56.3018" x2="27.8008" y2="7.82828" stroke="#003668"/>
    <path d="M15.3546 31.8449C15.7295 31.315 16.3382 31 16.9873 31H41C42.1046 31 43 31.8954 43 33V43C43 44.1046 42.1046 45 41 45H16.9873C16.3382 45 15.7295 44.685 15.3546 44.1551L11.8172 39.1551C11.3275 38.4629 11.3275 37.5371 11.8172 36.8449L15.3546 31.8449Z" fill="#00F8F6"/>
    <path opacity="0.25" fill-rule="evenodd" clip-rule="evenodd" d="M12 36L11 37.5L15.5938 44.4585H15.8003V44.4596H44.3872V42.8024H16.5561L12 36Z" fill="white"/>
    <path d="M15.5587 31.9893C15.8867 31.5256 16.4194 31.25 16.9873 31.25H41C41.9665 31.25 42.75 32.0335 42.75 33V43C42.75 43.9665 41.9665 44.75 41 44.75H16.9873C16.4194 44.75 15.8867 44.4744 15.5587 44.0107L12.0213 39.0107C11.5928 38.405 11.5928 37.595 12.0213 36.9893L15.5587 31.9893Z" stroke="#003668" stroke-width="0.5"/>
    <path d="M55 32C55 31.9986 55 31.9973 55 31.9959V32.0041C55 32.0027 55 32.0014 55 32C54.9988 37.348 53.5209 42.5917 50.7296 47.1514C47.9377 51.7123 43.9405 55.4114 39.1799 57.8396C34.4193 60.2678 29.0808 61.3305 23.7547 60.9104C18.4285 60.4902 13.3221 58.6035 9 55.4589L17.8562 44.895L20.9375 44.8673C22.4614 45.4718 24.0868 45.8026 25.7384 45.8374C28.1972 45.8891 30.6252 45.2832 32.772 44.082C34.9189 42.8808 36.7068 41.1279 37.9513 39.0041C39.1959 36.8802 39.852 34.4624 39.852 32C39.852 29.5376 39.1959 27.1198 37.9513 24.9959C36.7068 22.8721 34.9189 21.1192 32.772 19.918C30.6252 18.7168 28.1972 18.1109 25.7384 18.1626C23.2797 18.2144 20.8792 18.9221 18.7847 20.2126L9 8.54113C13.3221 5.39647 18.4285 3.50976 23.7547 3.08962C29.0808 2.66947 34.4193 3.73224 39.1799 6.16044C43.9405 8.58864 47.9377 12.2877 50.7296 16.8486C53.5209 21.4083 54.9988 26.652 55 32Z" fill="white"/>
    <path d="M55 31.9959C55 31.9973 55 31.9986 55 32C55 32.0014 55 32.0027 55 32.0041V31.9959Z" fill="white"/>
    <g opacity="0.24">
        <path d="M55 32C55 31.9986 55 31.9973 55 31.9959V32.0041C55 32.0027 55 32.0014 55 32C54.9988 37.348 53.5209 42.5917 50.7296 47.1514C47.9377 51.7123 43.9405 55.4114 39.1799 57.8396C34.4193 60.2678 29.0808 61.3305 23.7547 60.9104C18.4285 60.4902 13.3221 58.6035 9 55.4589L17.8828 44.8682H20.9397C22.463 45.4722 24.0876 45.8026 25.7384 45.8374C28.1972 45.8891 30.6252 45.2832 32.772 44.082C34.9189 42.8808 36.7068 41.1279 37.9513 39.0041C39.1959 36.8802 39.852 34.4624 39.852 32C39.852 29.5376 39.1959 27.1198 37.9513 24.9959C36.7068 22.8721 34.9189 21.1192 32.772 19.918C30.6252 18.7168 28.1972 18.1109 25.7384 18.1626C23.2797 18.2144 20.8792 18.9221 18.7847 20.2126L9 8.54113C13.3221 5.39647 18.4285 3.50976 23.7547 3.08962C29.0808 2.66947 34.4193 3.73224 39.1799 6.16044C43.9405 8.58864 47.9377 12.2877 50.7296 16.8486C53.5209 21.4083 54.9988 26.652 55 32Z" fill="#003668"/>
        <path d="M55 31.9959C55 31.9973 55 31.9986 55 32C55 32.0014 55 32.0027 55 32.0041V31.9959Z" fill="#003668"/>
    </g>
    <g filter="url(#filter0_d)">
        <path d="M13 12.0282C13 10.9127 13.9126 10.0128 15.028 10.0284L41.5625 10.3995C42.2256 10.4087 42.8409 10.7461 43.2054 11.3L47.0783 17.1868C47.5172 17.8539 47.5172 18.7182 47.0783 19.3853L43.2153 25.2571C42.8454 25.8193 42.2175 26.1578 41.5445 26.1578H15C13.8954 26.1578 13 25.2624 13 24.1578V12.0282Z" fill="#00EDA2"/>
        <mask id="mask0" mask-type="alpha" maskUnits="userSpaceOnUse" x="13" y="10" width="35" height="17">
            <path d="M13 12.0282C13 10.9127 13.9126 10.0128 15.028 10.0284L41.5625 10.3995C42.2256 10.4087 42.8409 10.7461 43.2054 11.3L47.0783 17.1868C47.5172 17.8539 47.5172 18.7182 47.0783 19.3853L43.2153 25.2571C42.8454 25.8193 42.2175 26.1578 41.5445 26.1578H15C13.8954 26.1578 13 25.2624 13 24.1578V12.0282Z" fill="#00EDA2"/>
        </mask>
        <g mask="url(#mask0)">
            <path opacity="0.1" fill-rule="evenodd" clip-rule="evenodd" d="M14.0851 10.415C13.715 10.415 13.415 10.715 13.415 11.0851V24.9155V25.0742C13.415 25.4442 13.715 25.7443 14.0851 25.7443C14.1107 25.7443 14.1359 25.7428 14.1608 25.74C14.188 25.7427 14.2157 25.7441 14.2436 25.7441H44.1913C44.4959 25.7441 44.776 25.5769 44.9206 25.3087C45.2183 24.7567 44.8184 24.0869 44.1913 24.0869H14.7552V11.0851C14.7552 10.715 14.4552 10.415 14.0851 10.415Z" fill="black" fill-opacity="0.92"/>
        </g>
        <path d="M13.25 12.0282C13.25 11.0521 14.0485 10.2647 15.0245 10.2783L41.559 10.6495C42.1392 10.6576 42.6777 10.9527 42.9966 11.4375L46.8694 17.3242C47.2535 17.908 47.2535 18.6642 46.8694 19.2479L43.0064 25.1197C42.6828 25.6116 42.1334 25.9078 41.5445 25.9078H15C14.0335 25.9078 13.25 25.1243 13.25 24.1578V12.0282Z" stroke="#003668" stroke-width="0.5"/>
        <path d="M38.7909 16.4851L28.3954 15L18 16.4851L23.1977 17.5989V20.9403L28.2799 21.9638L33.5932 20.9403V17.5989L38.7909 16.4851Z" fill="#7451EB"/>
        <path d="M33.5932 17.5989L38.7909 16.4851L28.3954 15L18 16.4851L23.1977 17.5989M33.5932 17.5989L28.3954 18.7127L23.1977 17.5989M33.5932 17.5989V20.969L28.3954 22L23.1977 20.969V17.5989" stroke="#003668" stroke-width="0.5" stroke-linecap="round" stroke-linejoin="round"/>
    </g>
    <defs>
        <filter id="filter0_d" x="13" y="10.0283" width="54.4075" height="36.1297" filterUnits="userSpaceOnUse" color-interpolation-filters="sRGB">
            <feFlood flood-opacity="0" result="BackgroundImageFix"/>
            <feColorMatrix in="SourceAlpha" type="matrix" values="0 0 0 0 0 0 0 0 0 0 0 0 0 0 0 0 0 0 127 0"/>
            <feOffset dx="10" dy="10"/>
            <feGaussianBlur stdDeviation="5"/>
            <feColorMatrix type="matrix" values="0 0 0 0 0 0 0 0 0 0 0 0 0 0 0 0 0 0 0.1 0"/>
            <feBlend mode="normal" in2="BackgroundImageFix" result="effect1_dropShadow"/>
            <feBlend mode="normal" in="SourceGraphic" in2="effect1_dropShadow" result="shape"/>
        </filter>
    </defs>
</svg>
