<svg width="56" height="56" viewBox="0 0 56 56" fill="none" xmlns="http://www.w3.org/2000/svg">
<path d="M45.5 32.3721H54.25V51.6238H45.5V32.3721Z" fill="#7451EB"/>
<path d="M29.7983 16.626C33.6643 16.626 36.7983 13.492 36.7983 9.62598C36.7983 5.75998 33.6643 2.62598 29.7983 2.62598C25.9323 2.62598 22.7983 5.75998 22.7983 9.62598C22.7983 13.492 25.9323 16.626 29.7983 16.626Z" fill="url(#paint0_linear)"/>
<path d="M17.5068 32.376C21.3728 32.376 24.5068 29.242 24.5068 25.376C24.5068 21.51 21.3728 18.376 17.5068 18.376C13.6408 18.376 10.5068 21.51 10.5068 25.376C10.5068 29.242 13.6408 32.376 17.5068 32.376Z" fill="url(#paint1_linear)"/>
<path d="M31.5446 46.375H22.7946C21.8664 46.375 20.9761 46.0063 20.3198 45.3499C19.6634 44.6935 19.2946 43.8033 19.2946 42.875C19.2946 41.9467 19.6634 41.0565 20.3198 40.4001C20.9761 39.7437 21.8664 39.375 22.7946 39.375H26.2946C36.75 39.375 33.25 34.125 45.5 34.125V48.2886C43.75 48.2886 32.4301 53.375 26.25 53.375C22.54 53.375 19.2946 51.4762 12.25 48.125C8.9075 46.5325 1.75 42.3386 1.75 39.375C1.75 35.875 11.2814 40.3051 19.2946 42.875" fill="#F2F2F2"/>
<path d="M45.5 48.2883C43.75 48.2883 32.4301 53.3747 26.25 53.3747C22.54 53.3747 19.2946 51.4759 12.25 48.1247C8.9075 46.5322 1.75 42.3383 1.75 39.3747C1.75 35.8747 11.2814 40.3048 19.2946 42.8747M45.5 32.3721H54.25V51.6238H45.5V32.3721Z" stroke="black" stroke-opacity="0.92" stroke-width="0.5" stroke-linecap="round" stroke-linejoin="round"/>
<path d="M29.7983 16.626C33.6643 16.626 36.7983 13.492 36.7983 9.62598C36.7983 5.75998 33.6643 2.62598 29.7983 2.62598C25.9323 2.62598 22.7983 5.75998 22.7983 9.62598C22.7983 13.492 25.9323 16.626 29.7983 16.626Z" stroke="black" stroke-opacity="0.92" stroke-width="0.5" stroke-linecap="round" stroke-linejoin="round"/>
<path d="M17.5068 32.376C21.3728 32.376 24.5068 29.242 24.5068 25.376C24.5068 21.51 21.3728 18.376 17.5068 18.376C13.6408 18.376 10.5068 21.51 10.5068 25.376C10.5068 29.242 13.6408 32.376 17.5068 32.376Z" stroke="black" stroke-opacity="0.92" stroke-width="0.5" stroke-linecap="round" stroke-linejoin="round"/>
<path d="M31.5444 46.375H22.7944C21.8662 46.375 20.9759 46.0063 20.3196 45.3499C19.6632 44.6935 19.2944 43.8033 19.2944 42.875C19.2944 41.9467 19.6632 41.0565 20.3196 40.4001C20.9759 39.7437 21.8662 39.375 22.7944 39.375H26.2944C36.7498 39.375 33.2192 34.125 45.4692 34.125" stroke="black" stroke-opacity="0.92" stroke-width="0.5" stroke-linecap="round" stroke-linejoin="round"/>
<defs>
<linearGradient id="paint0_linear" x1="29.7983" y1="2.62598" x2="29.7983" y2="16.626" gradientUnits="userSpaceOnUse">
<stop stop-color="#7451EB"/>
<stop offset="1" stop-color="#003668"/>
</linearGradient>
<linearGradient id="paint1_linear" x1="17.5068" y1="18.376" x2="17.5068" y2="32.376" gradientUnits="userSpaceOnUse">
<stop stop-color="#7451EB"/>
<stop offset="1" stop-color="#003668"/>
</linearGradient>
</defs>
</svg>
