<svg width="56" height="56" viewBox="0 0 56 56" fill="none" xmlns="http://www.w3.org/2000/svg">
<path d="M39.6021 39.6314C35.4319 38.8329 33.5429 37.8569 32.6885 36.8809L26.0295 42.2932L19.3031 37.0539H19.1177C18.2304 37.9846 16.3325 38.9065 12.2484 39.6323C3.11133 41.2515 3.11133 47.9957 3.11133 47.9957V55.6022H48.741V47.9957C48.741 47.9957 48.741 41.3793 39.6021 39.6314Z" fill="white"/>
<path d="M30.5001 8.44753C24.4586 8.44753 24.4054 14.441 15.4688 14.5209V16.0559C12.6171 16.0781 13.1557 18.9324 13.1557 19.6493C13.1557 20.3662 13.6047 25.177 15.9205 25.177C16.6208 27.8797 18.1191 30.3087 20.2202 32.1474V34.307C20.27 34.8035 20.2138 35.305 20.0552 35.7781C19.8965 36.2512 19.6392 36.6852 19.3001 37.0513L26.0291 42.2924L32.689 36.8801C32.4019 36.5224 32.1922 36.109 32.0731 35.6661C31.954 35.2232 31.928 34.7604 31.9969 34.307L31.9303 31.9114L31.9241 31.9069C33.8823 30.0971 35.2767 27.7606 35.9399 25.1779C38.2397 25.1513 38.6807 20.3707 38.6807 19.6529C38.6807 18.9351 39.2299 16.1038 36.3782 16.063V13.3169C36.3782 13.1013 36.3596 12.9025 36.3507 12.6958C36.0245 11.4162 35.261 10.2911 34.1925 9.51523C33.124 8.73937 31.8178 8.36166 30.5001 8.44753Z" fill="#F2F2F2"/>
<path d="M25.9257 2.36523C20.886 2.36523 15.4692 5.40768 15.4692 13.3168V14.5208C24.4058 14.441 24.4591 8.44747 30.5005 8.44747C31.8188 8.36022 33.1261 8.73708 34.1957 9.5127C35.2653 10.2883 36.0297 11.4138 36.3565 12.6939C36.0725 5.25773 30.8279 2.36523 25.9257 2.36523Z" fill="#003668"/>
<path d="M25.9443 2.36426C20.8123 2.36426 15.2964 5.40671 15.2964 13.3158V14.5199C24.3966 14.44 24.4508 8.44649 30.6028 8.44649C31.9453 8.35925 33.2765 8.7361 34.3657 9.51172C35.4549 10.2873 36.2333 11.4128 36.566 12.693C36.2769 5.25676 30.9362 2.36426 25.9443 2.36426Z" fill="#7451EB" stroke="black" stroke-opacity="0.92" stroke-width="0.5"/>
<path d="M21.3725 32.9902C18.6398 31.1637 16.6934 28.3768 15.9194 25.1823C13.6045 25.1823 13.0659 20.3697 13.0659 19.6528C13.0659 18.9359 12.9745 16.0815 15.2903 16.0594V13.3168C15.2903 5.40768 20.8934 2.36523 25.9331 2.36523C30.971 2.36523 36.575 5.40768 36.5732 13.3168V16.0629C38.8677 16.1037 38.779 18.935 38.779 19.6528C38.779 20.3706 38.2395 25.1512 35.9397 25.1778C35.1687 28.3727 33.2244 31.1608 30.4928 32.9885" stroke="black" stroke-opacity="0.92" stroke-width="0.5" stroke-linecap="round" stroke-linejoin="round"/>
<path d="M25.9377 42.2913L19.2929 37.1727L16.4199 38.7476V49.897L25.9377 42.2913ZM25.9377 42.2913L32.8406 37.0449L35.4323 38.5293V49.897L25.9377 42.2913ZM25.9377 42.2913V55.6022" stroke="black" stroke-opacity="0.92" stroke-width="0.5" stroke-linecap="round" stroke-linejoin="round"/>
<path d="M19.304 37.0502C18.4167 37.981 16.3325 38.9055 12.2493 39.6304C3.11133 41.2515 3.11133 47.9956 3.11133 47.9956V55.6022H48.741V47.9956C48.741 47.9956 48.741 41.3792 39.6021 39.6304C35.4319 38.8319 33.5429 37.8559 32.6885 36.8799" stroke="black" stroke-opacity="0.92" stroke-width="0.5" stroke-linecap="round" stroke-linejoin="round"/>
<path d="M20.2228 32.311V34.3074C20.2727 34.8039 20.2165 35.3053 20.0578 35.7785C19.8992 36.2516 19.6418 36.6856 19.3027 37.0517L26.03 42.2928L32.6899 36.8805C32.4028 36.5228 32.1931 36.1094 32.074 35.6665C31.9549 35.2236 31.9289 34.7608 31.9978 34.3074L31.9312 32.0537" stroke="black" stroke-opacity="0.92" stroke-width="0.5" stroke-linecap="round" stroke-linejoin="round"/>
<path d="M54.8881 31.1819C52.6762 31.2041 50.4828 30.7804 48.4409 29.9363C46.3991 29.0922 44.5513 27.8454 43.0097 26.2715C41.4681 27.8454 39.6203 29.0922 37.5785 29.9363C35.5366 30.7804 33.3432 31.2041 31.1313 31.1819C31.1313 31.1819 30.0919 48.8595 43.0097 55.7341C55.9275 48.8595 54.8881 31.1819 54.8881 31.1819Z" fill="url(#paint0_linear)"/>
<path d="M54.8881 31.1819C52.6762 31.2041 50.4828 30.7804 48.4409 29.9363C46.3991 29.0922 44.5513 27.8454 43.0097 26.2715C41.4681 27.8454 39.6203 29.0922 37.5785 29.9363C35.5366 30.7804 33.3432 31.2041 31.1313 31.1819C31.1313 31.1819 30.0919 48.8595 43.0097 55.7341C55.9275 48.8595 54.8881 31.1819 54.8881 31.1819Z" stroke="white" stroke-width="0.5" stroke-linecap="round" stroke-linejoin="round"/>
<path d="M49.4444 37.0742L42.5153 43.9488L39.0508 40.5115" stroke="#F2F2F2" stroke-linecap="round" stroke-linejoin="round"/>
<defs>
<linearGradient id="paint0_linear" x1="43.0002" y1="27.5" x2="43.0097" y2="55.7341" gradientUnits="userSpaceOnUse">
<stop stop-color="#7451EB"/>
<stop offset="1" stop-color="#003668"/>
</linearGradient>
</defs>
</svg>
