<svg width="64" height="64" viewBox="0 0 64 64" fill="none" xmlns="http://www.w3.org/2000/svg">
<path d="M55 32C55 31.9986 55 31.9973 55 31.9959V32.0041C55 32.0027 55 32.0014 55 32C54.9988 37.348 53.5209 42.5917 50.7296 47.1514C47.9377 51.7123 43.9405 55.4114 39.1799 57.8396C34.4193 60.2678 29.0808 61.3305 23.7547 60.9104C18.4285 60.4902 13.3221 58.6035 9 55.4589L17.8562 44.895L20.9375 44.8673C22.4614 45.4718 24.0868 45.8026 25.7384 45.8374C28.1972 45.8891 30.6252 45.2832 32.772 44.082C34.9189 42.8808 36.7068 41.1279 37.9513 39.0041C39.1959 36.8802 39.852 34.4624 39.852 32C39.852 29.5376 39.1959 27.1198 37.9513 24.9959C36.7068 22.8721 34.9189 21.1192 32.772 19.918C30.6252 18.7168 28.1972 18.1109 25.7384 18.1626C23.2797 18.2144 20.8792 18.9221 18.7847 20.2126L9 8.54113C13.3221 5.39647 18.4285 3.50976 23.7547 3.08962C29.0808 2.66947 34.4193 3.73224 39.1799 6.16044C43.9405 8.58864 47.9377 12.2877 50.7296 16.8486C53.5209 21.4083 54.9988 26.652 55 32Z" fill="white"/>
<path d="M55 31.9959C55 31.9973 55 31.9986 55 32C55 32.0014 55 32.0027 55 32.0041V31.9959Z" fill="white"/>
<g opacity="0.24">
<path d="M55 32C55 31.9986 55 31.9973 55 31.9959V32.0041C55 32.0027 55 32.0014 55 32C54.9988 37.348 53.5209 42.5917 50.7296 47.1514C47.9377 51.7123 43.9405 55.4114 39.1799 57.8396C34.4193 60.2678 29.0808 61.3305 23.7547 60.9104C18.4285 60.4902 13.3221 58.6035 9 55.4589L17.8828 44.8682H20.9397C22.463 45.4722 24.0876 45.8026 25.7384 45.8374C28.1972 45.8891 30.6252 45.2832 32.772 44.082C34.9189 42.8808 36.7068 41.1279 37.9513 39.0041C39.1959 36.8802 39.852 34.4624 39.852 32C39.852 29.5376 39.1959 27.1198 37.9513 24.9959C36.7068 22.8721 34.9189 21.1192 32.772 19.918C30.6252 18.7168 28.1972 18.1109 25.7384 18.1626C23.2797 18.2144 20.8792 18.9221 18.7847 20.2126L9 8.54113C13.3221 5.39647 18.4285 3.50976 23.7547 3.08962C29.0808 2.66947 34.4193 3.73224 39.1799 6.16044C43.9405 8.58864 47.9377 12.2877 50.7296 16.8486C53.5209 21.4083 54.9988 26.652 55 32Z" fill="#003668"/>
<path d="M55 31.9959C55 31.9973 55 31.9986 55 32C55 32.0014 55 32.0027 55 32.0041V31.9959Z" fill="#003668"/>
</g>
<path fill-rule="evenodd" clip-rule="evenodd" d="M37.9301 12.8091C45.2894 5.44982 56.0084 6.00977 56.0084 6.00977C56.0084 6.00977 56.5684 16.7288 49.289 24.1681C44.2646 29.1926 33.6154 38.763 27.2478 44.4856L26.8911 44.8062L17.292 35.2071C22.9715 28.8077 32.8906 17.8487 37.9301 12.8091ZM44.8096 20.4087C44.8096 22.1758 43.377 23.6084 41.6099 23.6084C39.8427 23.6084 38.4102 22.1758 38.4102 20.4087C38.4102 18.6415 39.8427 17.209 41.6099 17.209C43.377 17.209 44.8096 18.6415 44.8096 20.4087Z" fill="#00F8F6"/>
<path d="M36.1787 24.7535L38.4392 27.001L35.2569 27.9237L36.6014 29.2604L30.5938 30.0429L33.5719 28.2916L32.3559 27.0826L36.1787 24.7535Z" fill="#7451EB"/>
<path opacity="0.25" d="M35.2567 27.9239L38.4389 27.0012L37.7193 26.2857L34.5372 27.2085L35.2567 27.9239ZM35.8815 28.5451L32.3611 29.0038L30.5935 30.0431L36.6011 29.2606L35.8815 28.5451Z" fill="white"/>
<path d="M29.1787 31.7535L31.4392 34.001L28.2569 34.9237L29.6014 36.2604L23.5938 37.0429L26.5719 35.2916L25.3559 34.0826L29.1787 31.7535Z" fill="#7451EB"/>
<path opacity="0.25" d="M28.2567 34.9239L31.4389 34.0012L30.7193 33.2857L27.5372 34.2085L28.2567 34.9239ZM28.8815 35.5451L25.3611 36.0038L23.5935 37.0431L29.6011 36.2606L28.8815 35.5451Z" fill="white"/>
<path d="M13.0527 39.9266L22.0919 49.0458L26.8915 44.8061L17.2923 35.207L13.0527 39.9266Z" fill="#00EDA2"/>
<path d="M15.2929 42.2471C10.7333 44.4069 7.77361 48.3265 8.01358 54.006C13.6931 54.326 17.6127 51.2862 19.7725 46.7267L15.2929 42.2471Z" fill="#7451EB"/>
<path d="M26.2515 25.208H16.4124L12.8679 28.7524C11.744 29.8764 12.317 31.799 13.8728 32.1243L19.0521 33.2073L26.2515 25.208ZM28.0113 43.7663L29.0942 48.9456C29.4195 50.5015 31.3422 51.0744 32.4661 49.9505L36.0106 46.4061V36.567L28.0913 43.7663H28.0113Z" fill="#00EDA2"/>
<path opacity="0.1" d="M36.0107 36.487C41.0502 31.9274 46.1698 27.1278 49.2095 24.0881C56.5688 16.7288 56.0089 6.00977 56.0089 6.00977C56.0089 6.00977 48.6495 17.3687 40.8103 25.208L24.0918 41.9265L19.5322 46.486L22.092 49.0458L26.8915 44.8062L28.0914 43.7663L29.2113 49.1258L36.0107 42.2464V36.5669" fill="black" fill-opacity="0.92"/>
<path d="M15.2929 42.2464C10.7333 44.4062 7.77361 48.3259 8.01358 54.0053C13.6931 54.3253 17.6127 51.2856 19.7725 46.726L15.2929 42.2464ZM56.0092 6.00977C56.0092 6.00977 45.2901 5.44982 37.9308 12.8091C31.7537 18.9863 18.4192 33.8988 14.2945 38.5304C13.5932 39.318 13.6308 40.5094 14.3732 41.2584L20.7575 47.6992C21.5059 48.4542 22.7083 48.4967 23.5007 47.788C28.1462 43.6327 43.038 30.2598 49.2098 24.0881C56.5691 16.7288 56.0092 6.00977 56.0092 6.00977Z" stroke="#003668" stroke-width="0.5" stroke-linecap="round" stroke-linejoin="round"/>
<path d="M41.6099 23.6084C43.377 23.6084 44.8096 22.1758 44.8096 20.4087C44.8096 18.6415 43.377 17.209 41.6099 17.209C39.8427 17.209 38.4102 18.6415 38.4102 20.4087C38.4102 22.1758 39.8427 23.6084 41.6099 23.6084Z" stroke="#003668" stroke-width="0.5" stroke-linecap="round" stroke-linejoin="round"/>
<path d="M17.2923 35.2071L26.8914 44.7262M36.0106 36.567V45.57C36.0106 46.1049 35.7962 46.6176 35.4155 46.9934L32.457 49.9134C31.3311 51.0247 29.4218 50.4508 29.0952 48.9029L28.0113 43.7663M26.2515 25.208H17.2408C16.7104 25.208 16.2016 25.4187 15.8266 25.7938L12.8679 28.7524C11.744 29.8764 12.317 31.799 13.8728 32.1243L19.0521 33.2073L26.2515 25.208Z" stroke="#003668" stroke-width="0.5" stroke-linecap="round" stroke-linejoin="round"/>
<path d="M39.1801 57.8394C43.9407 55.4112 47.9379 51.7122 50.7299 47.1513L37.9516 39.0039C36.707 41.1277 34.9191 42.8807 32.7723 44.0818C30.9937 45.077 29.0221 45.6636 27 45.8061L25.2866 49.2719L23.7549 60.9102C29.0811 61.3304 34.4195 60.2676 39.1801 57.8394Z" fill="white"/>
<path opacity="0.24" d="M39.1752 57.8355C43.9358 55.4073 47.933 51.7083 50.725 47.1473L37.9467 39C36.7021 41.1238 34.9142 42.8767 32.7674 44.0779C30.9902 45.0723 29.0204 45.6587 27 45.8018L25.2788 49.2904L23.75 60.9063C29.0762 61.3265 34.4147 60.2637 39.1752 57.8355Z" fill="#003668"/>
</svg>
