<svg width="64" height="64" viewBox="0 0 64 64" fill="none" xmlns="http://www.w3.org/2000/svg">
<path d="M55 31.9959C54.9995 37.3454 53.5216 42.5905 50.7296 47.1514C47.9377 51.7123 43.9405 55.4114 39.1799 57.8396C34.4193 60.2678 29.0808 61.3305 23.7547 60.9104C18.4285 60.4902 13.3221 58.6035 9 55.4589L18.7847 43.7874C20.8792 45.0779 23.2797 45.7856 25.7384 45.8374C28.1972 45.8891 30.6252 45.2832 32.772 44.082C34.9189 42.8808 36.7068 41.1279 37.9513 39.0041C39.1959 36.8802 39.852 34.4624 39.852 32C39.852 29.5376 39.1959 27.1198 37.9513 24.9959C36.7068 22.8721 34.9189 21.1192 32.772 19.918C30.6252 18.7168 28.1972 18.1109 25.7384 18.1626C23.2797 18.2144 20.8792 18.9221 18.7847 20.2126L9 8.54113C13.3221 5.39647 18.4285 3.50976 23.7547 3.08962C29.0808 2.66947 34.4193 3.73224 39.1799 6.16044C43.9405 8.58864 47.9377 12.2877 50.7296 16.8486C53.5216 21.4095 54.9995 26.6546 55 32.0041V31.9959Z" fill="white"/>
<path opacity="0.24" d="M55 31.9959C54.9995 37.3454 53.5216 42.5905 50.7296 47.1514C47.9377 51.7123 43.9405 55.4114 39.1799 57.8396C34.4193 60.2678 29.0808 61.3305 23.7547 60.9104C18.4285 60.4902 13.3221 58.6035 9 55.4589L18.7847 43.7874C20.8792 45.0779 23.2797 45.7856 25.7384 45.8374C28.1972 45.8891 30.6252 45.2832 32.772 44.082C34.9189 42.8808 36.7068 41.1279 37.9513 39.0041C39.1959 36.8802 39.852 34.4624 39.852 32C39.852 29.5376 39.1959 27.1198 37.9513 24.9959C36.7068 22.8721 34.9189 21.1192 32.772 19.918C30.6252 18.7168 28.1972 18.1109 25.7384 18.1626C23.2797 18.2144 20.8792 18.9221 18.7847 20.2126L9 8.54113C13.3221 5.39647 18.4285 3.50976 23.7547 3.08962C29.0808 2.66947 34.4193 3.73224 39.1799 6.16044C43.9405 8.58864 47.9377 12.2877 50.7296 16.8486C53.5216 21.4095 54.9995 26.6546 55 32.0041V31.9959Z" fill="#003668"/>
<path d="M19.0286 4H41.0021L29.9309 23.9768H42.9997L17.4364 57.0005L23.4824 33.9652H11.6621L19.0286 4Z" fill="#7451EB"/>
<path opacity="0.25" d="M29.93 23.9768L41.0012 4H34.0063L22.9362 23.9768H29.93ZM36.004 23.9768L21.0244 43.3294L17.4355 57.0005L42.9989 23.9768H36.004Z" fill="white"/>
<path d="M19.0286 4H41.0021L29.9309 23.9768H42.9997L17.4364 57.0005L23.4824 33.9652H11.6621L19.0286 4V4Z" stroke="#003668" stroke-width="0.5" stroke-linecap="round" stroke-linejoin="round"/>
<path d="M55.0004 31.9999C55.0004 31.9985 55.0004 31.9972 55.0004 31.9958V32.004C55.0004 32.0026 55.0004 32.0012 55.0004 31.9999C54.9992 37.3479 53.5213 42.5915 50.7301 47.1513C47.9381 51.7122 43.9409 55.4112 39.1803 57.8394L32.7725 44.0819C34.9193 42.8807 36.7072 41.1278 37.9518 39.004C39.1963 36.8801 39.8524 34.4623 39.8524 31.9999C39.8524 29.5375 39.1963 27.1196 37.9518 24.9958C36.7072 22.872 34.9193 21.1191 32.7725 19.9179L46.5 11.4805C48.1091 13.0892 49.5308 14.8893 50.7301 16.8485C53.5213 21.4082 54.9992 26.6518 55.0004 31.9999Z" fill="white"/>
<path d="M55.0004 31.9958C55.0004 31.9972 55.0004 31.9985 55.0004 31.9999C55.0004 32.0012 55.0004 32.0026 55.0004 32.004V31.9958Z" fill="white"/>
<g opacity="0.24">
<path d="M54.9975 31.9997C54.9975 31.9984 54.9975 31.997 54.9975 31.9956V32.0038C54.9975 32.0024 54.9975 32.0011 54.9975 31.9997C54.9962 37.3478 53.5184 42.5914 50.7271 47.1511C47.9352 51.7121 43.938 55.4111 39.1774 57.8393L32.7695 44.0817C34.9164 42.8805 36.7043 41.1276 37.9488 39.0038C39.1934 36.88 39.8495 34.4621 39.8495 31.9997C39.8495 29.5373 39.1934 27.1195 37.9488 24.9956C36.7043 22.8718 34.9164 21.1189 32.7695 19.9177L46.5 11.5C48.101 13.1037 49.5327 14.8971 50.7271 16.8483C53.5184 21.4081 54.9962 26.6517 54.9975 31.9997Z" fill="#003668"/>
<path d="M54.9975 31.9956C54.9975 31.997 54.9975 31.9984 54.9975 31.9997C54.9975 32.0011 54.9975 32.0024 54.9975 32.0038V31.9956Z" fill="#003668"/>
</g>
</svg>
