<svg width="64" height="64" viewBox="0 0 64 64" fill="none" xmlns="http://www.w3.org/2000/svg">
<path d="M37.9513 24.9959C39.1959 27.1198 39.852 29.5376 39.852 32L55 32C54.9995 26.6505 53.5216 21.4095 50.7296 16.8486C47.9377 12.2877 43.9405 8.58864 39.1799 6.16044C34.4193 3.73224 29.0808 2.66947 23.7547 3.08962C18.4285 3.50976 13.3221 5.39647 9 8.54113L18.7847 20.2126C20.8792 18.9221 23.2797 18.2144 25.7384 18.1626C28.1972 18.1109 30.6252 18.7168 32.772 19.918C34.9189 21.1192 36.7068 22.8721 37.9513 24.9959Z" fill="white"/>
<path opacity="0.24" d="M37.9513 24.9959C39.1959 27.1198 39.852 29.5376 39.852 32L55 32.0041C54.9995 26.6546 53.5216 21.4095 50.7296 16.8486C47.9377 12.2877 43.9405 8.58864 39.1799 6.16044C34.4193 3.73224 29.0808 2.66947 23.7547 3.08962C18.4285 3.50976 13.3221 5.39647 9 8.54113L18.7847 20.2126C20.8792 18.9221 23.2797 18.2144 25.7384 18.1626C28.1972 18.1109 30.6252 18.7168 32.772 19.918C34.9189 21.1192 36.7068 22.8721 37.9513 24.9959Z" fill="#003668"/>
<path d="M31.1403 47.9713C29.9785 48.9251 28.6245 49.617 27.1709 49.9998L27.4724 45.7281L28.3767 32.9176L42.0425 26.7881C42.0425 26.7881 37.1167 37.3664 34.6487 42.8147C34.3637 43.4441 34.1114 44.0049 33.9033 44.4732C33.2446 45.8244 32.3022 47.0176 31.1403 47.9713Z" fill="#00F8F6"/>
<path d="M28.3767 32.9176L27.1709 49.9998C28.6245 49.617 29.9785 48.9251 31.1403 47.9713C32.3022 47.0176 33.2446 45.8244 33.9033 44.4732C35.913 39.9514 42.0425 26.7881 42.0425 26.7881" stroke="#003668" stroke-width="0.5" stroke-linecap="round" stroke-linejoin="round"/>
<path d="M50.7296 47.1555C53.5202 42.5969 54.998 37.3548 55 32.0082L39.852 32.0041C39.852 34.4665 39.1959 36.8843 37.9513 39.0082C36.7068 41.132 34.9189 42.8849 32.772 44.0861C30.6252 45.2873 28.1972 45.8932 25.7384 45.8414C23.2797 45.7897 20.8792 45.082 18.7847 43.7915L9 55.463C13.3221 58.6076 18.4285 60.4943 23.7547 60.9145C29.0808 61.3346 34.4193 60.2719 39.1799 57.8437C43.9405 55.4155 47.9377 51.7164 50.7296 47.1555Z" fill="white"/>
<path opacity="0.32" d="M50.7296 47.1516C47.9377 51.7125 43.9405 55.4116 39.1799 57.8397C34.4193 60.2679 29.0808 61.3307 23.7547 60.9106C18.4285 60.4904 13.3221 58.6037 9 55.4591L18.7847 43.7876C20.8792 45.0781 23.2797 45.7858 25.7384 45.8375C28.1972 45.8893 30.6252 45.2834 32.772 44.0822C34.9189 42.881 36.7068 41.1281 37.9513 39.0043C39.1692 36.926 39.8236 34.5662 39.8511 32.1585C39.8517 32.1058 39.852 32.053 39.852 32.0002L55 32.0043C55 32.0557 54.9998 32.1071 54.9995 32.1585C54.9694 37.4517 53.4933 42.6369 50.7296 47.1516Z" fill="#003668"/>
<path d="M47.268 13.9264C55.3618 9.51165 59.5224 13.7175 61.1701 16.2862C61.7405 17.1754 61.2862 18.2787 60.32 18.706L42.0429 26.7883L28.3771 32.9178L13.1037 39.7507C12.7466 39.9357 12.3503 40.0322 11.9481 40.0322C11.5459 40.0322 11.1496 39.9357 10.7925 39.7507L1.74902 31.2096L3.95966 30.0038C6.06981 28.8985 9.38577 30.0038 10.5916 31.0086C11.013 31.4127 11.5534 31.67 12.1327 31.7424C12.712 31.8148 13.2992 31.6984 13.807 31.4106L47.268 13.9264Z" fill="#00F8F6"/>
<path opacity="0.1" d="M60.219 18.7553C61.2253 18.3074 61.6951 17.1142 61.0613 16.2133C61.0195 16.1538 60.977 16.0947 60.9338 16.0361L11.295 37.2381L3.55773 30.2043L1.74902 31.2091L10.7925 39.7502C11.1496 39.9352 11.5459 40.0318 11.9481 40.0318C12.3503 40.0318 12.7466 39.9352 13.1037 39.7502L28.3771 32.9174L28.0757 37.4391L39.4303 32.4149L41.9424 26.8883L60.219 18.7553Z" fill="#000064"/>
<path d="M27.9 41.3172L28.5 32.8172L13.3 39.6172C12.9446 39.8013 12.5502 39.8974 12.15 39.8974C11.7498 39.8974 11.3554 39.8013 11 39.6172L2 31.1172L4.2 29.9172C6.3 28.8172 9.6 29.9172 10.8 30.9172C11.2194 31.3192 11.7572 31.5753 12.3337 31.6474C12.9102 31.7195 13.4946 31.6036 14 31.3172L47.3 13.9172C55.3468 9.52801 59.4871 13.7009 61.1303 16.2579C61.7014 17.1467 61.2471 18.2501 60.2809 18.6774L42.1 26.7172C42.1 26.7172 39.6428 31.994 37.3362 37" stroke="#003668" stroke-width="0.5" stroke-linecap="round" stroke-linejoin="round"/>
<path d="M35.6122 20.0555L21.0421 16.8401C19.8486 16.6494 18.6271 16.7409 17.4755 17.1074C16.3238 17.4738 15.274 18.105 14.4102 18.9502C17.3242 21.1608 24.2575 25.8836 24.2575 25.8836L35.6122 20.0555Z" fill="#00F8F6"/>
<path opacity="0.1" d="M35.6122 20.0555L21.0421 16.8401C19.8486 16.6494 18.6271 16.7409 17.4755 17.1074C16.3238 17.4738 15.274 18.105 14.4102 18.9502C17.3242 21.1608 24.2575 25.8836 24.2575 25.8836L35.6122 20.0555Z" fill="#000064"/>
<path d="M35.6122 20.0555L21.0421 16.8401C19.8486 16.6494 18.6271 16.7409 17.4755 17.1074C16.3238 17.4738 15.274 18.105 14.4102 18.9502C17.3242 21.1608 24.2575 25.8836 24.2575 25.8836" stroke="#003668" stroke-width="0.5" stroke-linecap="round" stroke-linejoin="round"/>
<path d="M29.9 37.3012H39V29.6012C39 29.2299 38.8525 28.8738 38.5899 28.6112C38.3274 28.3487 37.9713 28.2012 37.6 28.2012H19.4C19.0287 28.2012 18.6726 28.3487 18.4101 28.6112C18.1475 28.8738 18 29.2299 18 29.6012V37.3012H27.1V35.9012H29.9V37.3012Z" fill="#7451EB"/>
<path opacity="0.2" d="M37.6 28.2012H19.4C19.0287 28.2012 18.6726 28.3487 18.4101 28.6112C18.1475 28.8738 18 29.2299 18 29.6012V30.6512C18 30.2799 18.1475 29.9238 18.4101 29.6612C18.6726 29.3987 19.0287 29.2512 19.4 29.2512H37.6C37.9713 29.2512 38.3274 29.3987 38.5899 29.6612C38.8525 29.9238 39 30.2799 39 30.6512V29.6012C38.9994 29.23 38.8518 28.8743 38.5893 28.6118C38.3269 28.3494 37.9711 28.2017 37.6 28.2012Z" fill="white"/>
<path d="M38.3002 37.2979V42.8979H18.7002V37.2979H27.0995V38.6986H29.9002V37.2979H38.3002Z" fill="#E0E0E0"/>
<path opacity="0.15" d="M18.7002 37.2979H38.3002V39.3979H18.7002V37.2979Z" fill="#000064"/>
<path d="M27.0996 35.9004H29.8996V38.7004H27.0996V35.9004Z" fill="#00EDA2"/>
<path d="M29.9 37.3H39V29.6C39 29.2287 38.8525 28.8726 38.5899 28.6101C38.3274 28.3475 37.9713 28.2 37.6 28.2H19.4C19.0287 28.2 18.6726 28.3475 18.4101 28.6101C18.1475 28.8726 18 29.2287 18 29.6V37.3H27.1M25 28.2V26.8C25 26.0574 25.295 25.3452 25.8201 24.8201C26.3452 24.295 27.0574 24 27.8 24H29.2C29.9426 24 30.6548 24.295 31.1799 24.8201C31.705 25.3452 32 26.0574 32 26.8V28.1706L25 28.2Z" stroke="#003668" stroke-width="0.3" stroke-linecap="round" stroke-linejoin="round"/>
<path d="M38.3002 37.2979V42.8979H18.7002V37.2979" stroke="#003668" stroke-width="0.3" stroke-linecap="round" stroke-linejoin="round"/>
<path d="M27.0996 35.9004H29.8996V38.7004H27.0996V35.9004Z" stroke="#003668" stroke-width="0.3" stroke-linecap="round" stroke-linejoin="round"/>
<path d="M50.7296 47.1555C53.5202 42.5969 54.998 37.3548 55 32.0082L39.852 32.0041C39.852 34.4665 39.1959 36.8843 37.9513 39.0082C36.7068 41.132 34.9189 42.8849 32.772 44.0861C30.6252 45.2873 28.1972 45.8932 25.7384 45.8414C23.2797 45.7897 20.8792 45.082 18.7847 43.7915L9 55.463C13.3221 58.6076 18.4285 60.4943 23.7547 60.9145C29.0808 61.3346 34.4193 60.2719 39.1799 57.8437C43.9405 55.4155 47.9377 51.7164 50.7296 47.1555Z" fill="white"/>
<path opacity="0.24" d="M50.7296 47.1516C47.9377 51.7125 43.9405 55.4116 39.1799 57.8397C34.4193 60.2679 29.0808 61.3307 23.7547 60.9106C18.4285 60.4904 13.3221 58.6037 9 55.4591L18.7847 43.7876C20.8792 45.0781 23.2797 45.7858 25.7384 45.8375C28.1972 45.8893 30.6252 45.2834 32.772 44.0822C34.9189 42.881 36.7068 41.1281 37.9513 39.0043C39.1692 36.926 39.8236 34.5662 39.8511 32.1585C39.8517 32.1058 39.852 32.053 39.852 32.0002L55 32.0043C55 32.0557 54.9998 32.1071 54.9995 32.1585C54.9694 37.4517 53.4933 42.6369 50.7296 47.1516Z" fill="#003668"/>
</svg>
