<svg width="273" height="40" viewBox="0 0 273 40" fill="none" xmlns="http://www.w3.org/2000/svg">
<g clip-path="url(#clip0)">
<path d="M66.3174 32.7156C60.1746 37.287 51.3174 39.7156 43.6031 39.7156C32.8889 39.7156 23.1746 35.7156 15.8889 29.1441C15.3174 28.5727 15.8889 27.8584 16.4603 28.287C24.3174 32.8584 34.1746 35.5727 44.1746 35.5727C51.0317 35.5727 58.4603 34.1441 65.3174 31.287C66.4603 30.8584 67.3174 32.0013 66.3174 32.7156Z" fill="#737373"/>
<path d="M68.8889 29.7163C68.1746 28.7163 63.746 29.2877 61.746 29.4306C61.1746 29.5734 61.0318 29.002 61.6032 28.5734C65.1746 26.1448 70.8889 26.8591 71.6032 27.7163C72.3175 28.5734 71.4603 34.2877 68.1746 37.002C67.6032 37.4305 67.1746 37.1448 67.4603 36.5734C68.0318 34.8591 69.746 30.7163 68.8889 29.7163Z" fill="#737373"/>
<path d="M61.8889 11.2871V8.85854C61.8889 8.42997 62.1746 8.28711 62.4603 8.28711H73.1746C73.4603 8.28711 73.746 8.57282 73.746 8.85854V10.8585C73.746 11.1443 73.4603 11.7157 72.8889 12.43L67.3175 20.43C69.3175 20.43 71.6032 20.7157 73.4603 21.7157C73.8889 22.0014 74.0318 22.2871 74.0318 22.7157V25.2871C74.0318 25.5728 73.6032 26.0014 73.1746 25.8585C69.8889 24.1443 65.4603 24.0014 61.8889 25.8585C61.4603 26.0014 61.1746 25.7157 61.1746 25.2871V22.8585C61.1746 22.43 61.1746 21.8585 61.6032 21.1443L68.0318 11.8585H62.4603C62.1746 11.8585 61.8889 11.7157 61.8889 11.2871Z" fill="#737373"/>
<path d="M22.746 26.2857H19.4603C19.1746 26.2857 18.8889 26 18.8889 25.7143V9C18.8889 8.71429 19.1746 8.42857 19.4603 8.42857H22.4603C22.746 8.42857 23.0317 8.71429 23.0317 9V11.1429C23.8889 9 25.3174 8 27.3174 8C29.3174 8 30.6031 9 31.6031 11.1429C32.4603 9 34.1746 8 36.1746 8C37.6031 8 39.0317 8.57143 39.8889 9.85714C40.8889 11.2857 40.746 13.2857 40.746 15.1429V25.7143C40.746 26 40.4603 26.2857 40.1746 26.2857H36.8889C36.6031 26.2857 36.3174 26 36.3174 25.7143V16.8571C36.3174 16.1429 36.3174 14.4286 36.1746 13.7143C35.8889 12.5714 35.1746 12.2857 34.3174 12.2857C33.4603 12.2857 32.746 12.8571 32.3174 13.7143C32.0317 14.5714 32.0317 16 32.0317 16.8571V25.7143C32.0317 26 31.746 26.2857 31.4603 26.2857H28.1746C27.8889 26.2857 27.6031 26 27.6031 25.7143V16.8571C27.6031 15 27.8889 12.2857 25.6031 12.2857C23.3174 12.2857 23.3174 15 23.3174 16.8571V25.7143C23.3174 26 23.0317 26.2857 22.746 26.2857Z" fill="#737373"/>
<path d="M83.1746 8C88.0317 8 90.6031 12.1429 90.6031 17.4286C90.6031 22.5714 87.746 26.5714 83.1746 26.5714C78.4603 26.5714 75.8889 22.4286 75.8889 17.2857C75.746 12 78.3174 8 83.1746 8ZM83.1746 11.4286C80.746 11.4286 80.6031 14.7143 80.6031 16.7143C80.6031 18.7143 80.6031 23.1429 83.1746 23.1429C85.746 23.1429 85.8889 19.5714 85.8889 17.4286C85.8889 16 85.8889 14.2857 85.4603 13C84.8889 11.8571 84.1746 11.4286 83.1746 11.4286Z" fill="#737373"/>
<path d="M96.8889 26.2857H93.6032C93.3175 26.2857 93.0317 26 93.0317 25.7143V9C93.0317 8.71429 93.3175 8.42857 93.6032 8.42857H96.6032C96.8889 8.42857 97.1746 8.57143 97.1746 8.85714V11.4286C98.0317 9.14286 99.3175 8 101.603 8C103.032 8 104.46 8.57143 105.46 10C106.317 11.2857 106.317 13.5714 106.317 15.2857V25.7143C106.317 26 106.032 26.2857 105.746 26.2857H102.46C102.175 26.2857 101.889 26 101.889 25.7143V16.5714C101.889 14.7143 102.032 12 99.8889 12C99.0317 12 98.3175 12.5714 98.0317 13.2857C97.6032 14.2857 97.4603 15.2857 97.4603 16.4286V25.7143C97.4603 26 97.1746 26.2857 96.8889 26.2857Z" fill="#737373"/>
<path fill-rule="evenodd" clip-rule="evenodd" d="M53.3174 17.4289V18.2849C53.3174 19.5706 53.3174 20.5706 52.746 21.7135C52.1746 22.5706 51.4603 23.142 50.4603 23.142C49.2022 23.142 48.4913 22.1846 48.4613 20.805C48.461 20.7916 48.4608 20.7781 48.4606 20.7646C48.4604 20.7476 48.4603 20.7306 48.4603 20.7135C48.4603 17.9992 50.8889 17.4277 53.3174 17.4277V17.4289ZM55.8889 26.286C56.0317 26.286 56.3175 26.286 56.6032 26.1431C56.9603 25.8574 57.4246 25.4646 57.8889 25.0717C58.3532 24.6788 58.8175 24.286 59.1746 24.0003C59.4603 23.8574 59.3175 23.4289 59.1746 23.1431C59.1285 23.0879 59.0831 23.0338 59.0383 22.9806C58.389 22.2081 57.8889 21.6132 57.8889 20.1431V15.0003C57.8889 14.8344 57.8897 14.6694 57.8906 14.5054C57.9007 12.5512 57.9101 10.7468 56.4603 9.42885C55.3175 8.28599 53.1746 7.85742 51.6032 7.85742C48.4603 7.85742 45.0317 9.00028 44.3175 12.8574C44.1746 13.286 44.4603 13.5717 44.746 13.5717L47.8889 13.8574C48.1746 13.8574 48.4603 13.5717 48.4603 13.286C48.746 11.8574 49.746 11.286 51.0317 11.286C51.746 11.286 52.4603 11.5717 52.8889 12.1431C53.3175 12.8574 53.3175 13.8574 53.3175 14.5717V15.0003C52.8458 15.0728 52.328 15.1362 51.7899 15.202C50.2094 15.3954 48.4535 15.6103 47.1746 16.1431C45.1746 17.0003 43.746 18.7146 43.746 21.4289C43.746 24.8574 45.8889 26.5717 48.6032 26.5717C51.0318 26.5717 52.1746 26.0003 54.0317 24.1431C54.133 24.295 54.2207 24.4333 54.303 24.563C54.6852 25.1655 54.9485 25.5807 55.8889 26.286Z" fill="#737373"/>
<path fill-rule="evenodd" clip-rule="evenodd" d="M10.4603 16.714V17.57C10.4603 18.8557 10.4603 19.8557 9.88887 20.9986C9.31744 21.8557 8.60316 22.4272 7.60316 22.4272C6.3447 22.4272 5.6337 21.4691 5.60411 20.0889C5.60383 20.0759 5.60362 20.0628 5.60346 20.0498C5.60326 20.0328 5.60315 20.0157 5.60315 19.9986C5.60315 17.2843 8.03173 16.7129 10.4603 16.7129V16.714ZM13.0317 25.5711C13.1746 25.5711 13.4603 25.5711 13.746 25.4283C14.1032 25.1426 14.5675 24.7497 15.0317 24.3569C15.496 23.964 15.9603 23.5711 16.3175 23.2854C16.6032 23.1426 16.4603 22.714 16.3175 22.4283C16.2714 22.373 16.2259 22.3189 16.1812 22.2657C15.5319 21.4933 15.0317 20.8984 15.0317 19.4283V14.2854C15.0317 14.1195 15.0326 13.9545 15.0335 13.7905C15.0436 11.8363 15.0529 10.032 13.6032 8.71401C12.4603 7.57115 10.3175 7.14258 8.74603 7.14258C5.60317 7.14258 2.1746 8.28544 1.46031 12.1426C1.31746 12.5711 1.60317 12.8569 1.88889 12.8569L5.03174 13.1426C5.31746 13.1426 5.60317 12.8569 5.60317 12.5711C5.88888 11.1426 6.88888 10.5711 8.1746 10.5711C8.88888 10.5711 9.60317 10.8569 10.0317 11.4283C10.4603 12.1426 10.4603 13.1426 10.4603 13.8569V14.2854C9.98863 14.358 9.47086 14.4214 8.93276 14.4872C7.35225 14.6806 5.59634 14.8954 4.31746 15.4283C2.31746 16.2854 0.888885 17.9997 0.888885 20.714C0.888885 24.1426 3.03174 25.8569 5.74603 25.8569C8.1746 25.8569 9.31746 25.2854 11.1746 23.4283C11.2758 23.5801 11.3636 23.7185 11.4458 23.8482C11.828 24.4507 12.0913 24.8658 13.0317 25.5711Z" fill="#737373"/>
<path d="M121.603 11.4286C120.603 10.8571 119.603 10.5714 118.175 10.5714C115.317 10.5714 113.317 12.5714 113.317 17.2857C113.317 21.4286 115.317 23.7143 118.032 23.7143C119.46 23.7143 120.603 23.2857 121.603 22.7143L121.746 25.4286C120.889 25.8571 119.317 26.1429 118.032 26.1429C112.746 26.1429 110.175 22.2857 110.175 17.2857C110.175 11.5714 113.175 8 118.032 8C119.175 8 120.603 8.28571 121.603 8.71429V11.4286Z" fill="#B4B4B4"/>
<path d="M125.317 9.57115C126.746 8.57115 128.603 8.14258 130.317 8.14258C132.889 8.14258 134.46 9.28544 135.032 9.85686C135.746 10.5712 136.603 11.714 136.603 14.1426V23.4283C136.603 24.4283 136.603 25.5712 136.746 26.1426H134.175L134.032 23.714C133.175 24.9997 131.746 26.2854 129.032 26.2854C126.175 26.2854 123.889 24.5712 123.889 21.1426C123.889 17.714 126.175 15.1426 132.175 15.1426H133.746V14.2854C133.746 12.9997 133.603 12.1426 133.032 11.4283C132.46 10.5712 131.317 10.2854 130.032 10.2854C128.175 10.2854 126.46 10.9997 125.46 12.1426L125.317 9.57115ZM133.746 17.2854C133.175 17.2854 132.46 17.2854 131.746 17.2854C128.317 17.2854 126.746 18.8569 126.746 20.9997C126.746 22.8569 127.746 24.1426 129.746 24.1426C132.317 24.1426 133.889 22.1426 133.889 19.714V17.2854H133.746Z" fill="#B4B4B4"/>
<path d="M140.746 12.1429C140.746 10.8571 140.603 9.57143 140.603 8.28571H143.46L143.603 11C144.603 8.85714 146.032 8 148.603 8V10.8571C148.317 10.8571 147.889 10.7143 147.46 10.7143C145.175 10.7143 143.603 12.7143 143.603 16.5714V26H140.746V12.1429Z" fill="#B4B4B4"/>
<path d="M153.175 18.0003C153.175 22.1431 154.746 24.0003 158.032 24.0003C159.46 24.0003 161.032 23.286 162.032 22.5717L162.175 25.1431C160.746 25.8574 159.032 26.1431 157.175 26.1431C152.46 26.1431 150.032 22.5717 150.032 17.0003C150.032 11.4288 152.46 7.85742 156.889 7.85742C160.889 7.85742 163.032 11.0003 163.032 16.286V17.8574H153.175V18.0003ZM160.175 15.8574C160.175 12.1431 159.032 10.286 156.746 10.286C154.889 10.286 153.175 11.7146 153.175 15.8574H160.175Z" fill="#B4B4B4"/>
<path d="M168.46 18.0003C168.46 22.1431 170.032 24.0003 173.317 24.0003C174.746 24.0003 176.317 23.286 177.317 22.5717L177.46 25.1431C176.032 25.8574 174.317 26.1431 172.46 26.1431C167.746 26.1431 165.317 22.5717 165.317 17.0003C165.317 11.4288 167.746 7.85742 172.175 7.85742C176.175 7.85742 178.317 11.0003 178.317 16.286V17.8574H168.46V18.0003ZM175.603 15.8574C175.603 12.1431 174.46 10.286 172.175 10.286C170.317 10.286 168.603 11.7146 168.603 15.8574H175.603Z" fill="#B4B4B4"/>
<path d="M181.746 12.1429C181.746 10.8571 181.603 9.57143 181.603 8.28571H184.46L184.603 11C185.603 8.85714 187.032 8 189.603 8V10.8571C189.317 10.8571 188.889 10.7143 188.46 10.7143C186.175 10.7143 184.603 12.7143 184.603 16.5714V26H181.746V12.1429Z" fill="#B4B4B4"/>
<path d="M202.46 11.4286C201.46 10.8571 200.46 10.5714 199.032 10.5714C196.175 10.5714 194.175 12.5714 194.175 17.2857C194.175 21.4286 196.175 23.7143 198.889 23.7143C200.317 23.7143 201.46 23.2857 202.46 22.7143L202.603 25.4286C201.746 25.8571 200.175 26.1429 198.889 26.1429C193.603 26.1429 191.032 22.2857 191.032 17.2857C191.032 11.5714 194.032 8 198.889 8C200.032 8 201.46 8.28571 202.46 8.71429V11.4286Z" fill="#B4B4B4"/>
<path d="M205.46 0H208.317V10.7143C209.032 9.28571 210.603 8 212.603 8C215.746 8 217.746 9.71429 217.746 13.7143V26H214.889V14.5714C214.889 11.7143 213.889 10.5714 212.032 10.5714C209.746 10.5714 208.317 12.1429 208.317 15.2857V26H205.46V0Z" fill="#B4B4B4"/>
<path d="M228.46 8.14258C233.175 8.14258 235.603 11.714 235.603 17.2854C235.603 22.8569 233.175 26.4283 228.46 26.4283C223.746 26.4283 221.317 22.8569 221.317 17.2854C221.317 11.5712 223.746 8.14258 228.46 8.14258ZM228.46 23.8569C231.175 23.8569 232.46 21.5712 232.46 17.1426C232.46 12.714 231.175 10.4283 228.46 10.4283C225.746 10.4283 224.46 12.714 224.46 17.1426C224.46 21.5712 225.746 23.8569 228.46 23.8569Z" fill="#B4B4B4"/>
<path d="M257.032 11.4286C256.032 10.8571 255.032 10.5714 253.603 10.5714C250.746 10.5714 248.746 12.5714 248.746 17.2857C248.746 21.4286 250.746 23.7143 253.46 23.7143C254.889 23.7143 256.032 23.2857 257.032 22.7143L257.175 25.4286C256.317 25.8571 254.746 26.1429 253.46 26.1429C248.175 26.1429 245.603 22.2857 245.603 17.2857C245.603 11.5714 248.603 8 253.46 8C254.603 8 256.032 8.28571 257.032 8.71429V11.4286Z" fill="#B4B4B4"/>
<path d="M239.032 4.56948H242.175V0.998047H239.032V4.56948ZM239.175 25.998H242.032V8.28376H239.175V25.998Z" fill="#B4B4B4"/>
<path d="M262.317 18.0003C262.317 22.1431 263.889 24.0003 267.175 24.0003C268.603 24.0003 270.175 23.286 271.175 22.5717L271.317 25.1431C269.889 25.8574 268.175 26.1431 266.317 26.1431C261.603 26.1431 259.175 22.5717 259.175 17.0003C259.175 11.4288 261.603 7.85742 266.032 7.85742C270.032 7.85742 272.175 11.0003 272.175 16.286V17.8574H262.317V18.0003ZM269.317 15.8574C269.317 12.1431 268.175 10.286 265.889 10.286C264.032 10.286 262.317 11.7146 262.317 15.8574H269.317Z" fill="#B4B4B4"/>
</g>
<defs>
<clipPath id="clip0">
<rect width="271.429" height="40" fill="white" transform="translate(0.888885)"/>
</clipPath>
</defs>
</svg>
