<svg width="40" height="40" viewBox="0 0 40 40" fill="none" xmlns="http://www.w3.org/2000/svg">
<g clip-path="url(#clip0)">
<path d="M40 0H0.000366211V39.9996H40V0Z" fill="#737373"/>
<path d="M22.4901 19.754H24.7872L40 0H37.7531L22.4901 19.754Z" fill="#D2D2D2"/>
<path d="M30.564 28.5685C31.2612 30.5191 32.6978 35.5951 33.269 35.9995H29.4973C29.486 35.5507 29.4267 35.1045 29.3203 34.6683C29.1577 34.0882 27.7934 29.6991 27.7934 29.6991H21.8025L20.8606 31.0345C20.8606 31.0345 21.9919 34.576 22.0622 34.7496C22.1842 35.0625 22.7243 35.9995 22.7243 35.9995H19.1098C19.1098 35.9995 19.0161 35.4586 18.981 35.2333C18.9527 35.0514 18.6385 34.0551 18.6385 34.0551C18.6385 34.0551 17.8193 34.9529 17.5961 35.3691C17.3707 35.7845 17.2708 35.9995 17.2708 35.9995H14.4431C14.4431 35.9995 14.3487 35.4586 14.3136 35.2333C14.286 35.0514 13.9401 33.9752 13.9401 33.9752C13.9401 33.9752 13.1485 34.9364 12.9231 35.3518C12.6992 35.768 12.6027 35.9995 12.6027 35.9995H9.80608C9.80608 35.9995 10.5964 35.2471 10.8727 34.924C11.3384 34.3762 13.074 32.108 13.074 32.108L12.3782 29.6991H6.43264C6.43264 29.6991 3.04268 34.1536 2.90905 34.2914C2.77401 34.4272 1.78596 35.8452 1.76387 35.9995H0V34.8778C0.0218774 34.854 0.0451047 34.8314 0.0695672 34.8103C0.124036 34.7703 2.6396 31.6477 4.95056 28.5685C7.02727 25.8834 8.97579 23.272 9.14667 23.0233C9.56076 22.4218 10.1574 21.123 10.1574 21.123H13.2311C13.2311 21.123 13.3262 22.3178 13.4158 22.6078C13.4957 22.8641 15.3684 29.0088 15.4125 29.0749L16.4481 27.7506L14.678 22.3019C14.678 22.3019 14.2632 21.2766 14.1282 21.123H17.7187C17.706 21.4526 17.7455 21.7821 17.8358 22.0993C17.9818 22.5486 18.7515 25.326 18.7515 25.326C18.7515 25.326 21.2003 22.2564 21.3436 22.036C21.5175 21.761 21.6214 21.4475 21.646 21.123H24.6377C24.6377 21.123 24.09 21.5233 23.1302 22.7373C22.8077 23.1459 19.6486 27.1609 19.6486 27.1609C19.6486 27.1609 19.9242 28.1007 20.0586 28.5685C20.0951 28.7028 20.1206 28.7938 20.1206 28.8035C20.1206 28.8076 20.1901 28.7222 20.31 28.5685C21.1251 27.5356 24.8327 22.674 25.0574 22.2578C25.2386 21.9216 25.5052 21.5392 25.6616 21.123H28.5803C28.5803 21.123 28.6478 21.9946 28.7367 22.2358L30.564 28.5685ZM26.1225 23.9666C25.694 24.8885 23.1715 27.9594 23.1715 27.9594H27.1664C27.1664 27.9594 26.392 25.5747 26.257 25.0373C26.1879 24.6937 26.1615 24.3428 26.1784 23.9927C26.1784 23.9438 26.1694 23.8646 26.1225 23.9666ZM10.7734 23.9666C10.3448 24.8885 7.82236 27.9594 7.82236 27.9594H11.8173C11.8173 27.9594 11.0435 25.5747 10.9085 25.0373C10.8395 24.6937 10.8131 24.3428 10.8299 23.9927C10.8299 23.9438 10.8203 23.8646 10.7734 23.9666H10.7734ZM16.7878 33.2779L17.8875 31.7676C17.7862 31.6587 17.1668 29.7805 17.1668 29.7805L16.1036 31.1598L16.7878 33.2779Z" fill="white"/>
</g>
<defs>
<clipPath id="clip0">
<rect width="40" height="40" fill="white"/>
</clipPath>
</defs>
</svg>
