<svg width="130" height="40" viewBox="0 0 130 40" fill="none" xmlns="http://www.w3.org/2000/svg">
<g clip-path="url(#clip0)">
<path d="M0.88887 39.4707V33.1638C0.88887 33.0369 0.952362 32.931 1.10051 32.8675C1.22749 32.804 1.39681 32.7617 1.58728 32.7617C1.77776 32.7617 1.94707 32.804 2.07406 32.8675C2.20104 32.931 2.26453 33.0369 2.26453 33.1638V38.7723H4.84654C4.97353 38.7723 5.07935 38.8358 5.14284 38.9416C5.20633 39.0474 5.24866 39.1744 5.24866 39.3226C5.24866 39.4707 5.20633 39.5977 5.14284 39.7035C5.07935 39.8093 4.97353 39.8728 4.84654 39.8728H1.48146C1.31215 39.8728 1.18517 39.8305 1.05818 39.767C0.952362 39.6824 0.88887 39.5977 0.88887 39.4707Z" fill="#737373"/>
<path d="M8.50792 39.4707V33.1638C8.50792 33.0369 8.57141 32.9522 8.67723 32.8675C8.80422 32.804 8.9312 32.7617 9.10051 32.7617H12.8677C13.0159 32.7617 13.1217 32.8252 13.1852 32.931C13.2487 33.0369 13.291 33.1638 13.291 33.312C13.291 33.4601 13.2487 33.6083 13.1852 33.7141C13.1005 33.8199 12.9947 33.8834 12.8677 33.8834H9.88358V35.8305H11.492C11.619 35.8305 11.7248 35.8728 11.8095 35.9787C11.8942 36.0845 11.9153 36.1903 11.9153 36.3384C11.9153 36.4654 11.873 36.5712 11.8095 36.6771C11.7248 36.7829 11.619 36.8252 11.492 36.8252H9.88358V38.7723H12.8889C13.0159 38.7723 13.1217 38.8358 13.2063 38.9416C13.291 39.0474 13.3122 39.1956 13.3122 39.3437C13.3122 39.4919 13.2698 39.6189 13.2063 39.7247C13.1428 39.8305 13.0159 39.894 12.8889 39.894H9.10051C8.9312 39.894 8.80422 39.8517 8.67723 39.7882C8.57141 39.6824 8.50792 39.5977 8.50792 39.4707Z" fill="#737373"/>
<path d="M14.7725 39.4707V33.1638C14.7725 33.0369 14.836 32.931 14.9841 32.8675C15.1111 32.804 15.2804 32.7617 15.4709 32.7617C15.6614 32.7617 15.8307 32.804 15.9577 32.8675C16.0846 32.931 16.1481 33.0369 16.1481 33.1638V38.7723H18.7301C18.8571 38.7723 18.9629 38.8358 19.0264 38.9416C19.0899 39.0474 19.1323 39.1744 19.1323 39.3226C19.1323 39.4707 19.0899 39.5977 19.0264 39.7035C18.9629 39.8093 18.8571 39.8728 18.7301 39.8728H15.3862C15.2169 39.8728 15.0899 39.8305 14.963 39.767C14.836 39.6824 14.7725 39.5977 14.7725 39.4707Z" fill="#737373"/>
<path d="M20.5502 39.4707V33.1638C20.5502 33.0369 20.6137 32.9522 20.7196 32.8675C20.8465 32.804 20.9735 32.7617 21.1428 32.7617H24.91C25.0582 32.7617 25.164 32.8252 25.2275 32.931C25.291 33.0369 25.3333 33.1638 25.3333 33.312C25.3333 33.4601 25.291 33.6083 25.2275 33.7141C25.1428 33.8199 25.037 33.8834 24.91 33.8834H21.9259V35.8305H23.5344C23.6614 35.8305 23.7672 35.8728 23.8518 35.9787C23.9365 36.0845 23.9577 36.1903 23.9577 36.3384C23.9577 36.4654 23.9153 36.5712 23.8518 36.6771C23.7672 36.7829 23.6614 36.8252 23.5344 36.8252H21.9259V38.7723H24.9312C25.0582 38.7723 25.164 38.8358 25.2487 38.9416C25.3333 39.0474 25.3545 39.1956 25.3545 39.3437C25.3545 39.4919 25.3122 39.6189 25.2487 39.7247C25.1852 39.8305 25.0582 39.894 24.9312 39.894H21.164C20.9947 39.894 20.8677 39.8517 20.7407 39.7882C20.6137 39.6824 20.5502 39.5977 20.5502 39.4707Z" fill="#737373"/>
<path d="M26.6666 37.6926V34.9836C26.6666 34.2217 26.8995 33.6503 27.3439 33.2905C27.7883 32.9307 28.3809 32.7402 29.1217 32.7402C29.8624 32.7402 30.4762 32.9095 30.9418 33.2482C31.4074 33.5868 31.6402 34.0312 31.6402 34.5815C31.6402 34.8143 31.5767 34.9836 31.4709 35.0683C31.3651 35.1529 31.1958 35.1953 30.9418 35.1953C30.4973 35.1953 30.2645 35.0683 30.2645 34.7931C30.2645 34.7085 30.2434 34.645 30.2434 34.5815C30.2434 34.518 30.201 34.4334 30.1587 34.3487C30.1164 34.2429 30.0529 34.1582 29.9894 34.0947C29.9259 34.0312 29.8201 33.9677 29.6719 33.9254C29.5238 33.8831 29.3545 33.8619 29.164 33.8619C28.4233 33.8619 28.0423 34.2429 28.0423 34.9836V37.6926C28.0423 38.4334 28.4233 38.8143 29.1852 38.8143C29.418 38.8143 29.6085 38.772 29.7566 38.7085C29.9047 38.645 30.0106 38.5603 30.0952 38.4334C30.1587 38.3064 30.201 38.2005 30.2434 38.1159C30.2645 38.0312 30.2857 37.9043 30.2857 37.7773C30.3069 37.5021 30.5397 37.3752 30.9629 37.3752C31.2169 37.3752 31.3862 37.4175 31.492 37.5021C31.5979 37.5868 31.6614 37.7561 31.6614 37.9889C31.6614 38.5815 31.4286 39.0471 30.9629 39.3857C30.4973 39.7455 29.8836 39.9148 29.1428 39.9148C28.4233 39.9148 27.8307 39.7455 27.3862 39.3857C26.8995 39.0259 26.6666 38.4545 26.6666 37.6926Z" fill="#737373"/>
<path d="M32.7196 33.312C32.7196 33.1638 32.7619 33.0369 32.8254 32.931C32.8889 32.8252 33.0159 32.7617 33.1428 32.7617H37.6296C37.7777 32.7617 37.8836 32.8252 37.9471 32.931C38.0105 33.0369 38.0529 33.1638 38.0529 33.312C38.0529 33.4601 38.0105 33.5871 37.9471 33.7141C37.8624 33.8199 37.7566 33.8834 37.6296 33.8834H36.0846V39.4707C36.0846 39.5977 36.0211 39.6824 35.873 39.767C35.7248 39.8305 35.5767 39.8728 35.3862 39.8728C35.1957 39.8728 35.0264 39.8305 34.8994 39.767C34.7725 39.7035 34.709 39.5977 34.709 39.4707V33.8623H33.1428C33.0159 33.8623 32.91 33.7988 32.8254 33.6929C32.7619 33.6083 32.7196 33.4601 32.7196 33.312Z" fill="#737373"/>
<path d="M39.4709 39.471V33.1642C39.4709 33.0583 39.5132 32.9737 39.5979 32.889C39.6825 32.8044 39.7883 32.7832 39.9153 32.7832H42.0106C43.6825 32.7832 44.5291 33.4605 44.5291 34.815C44.5291 35.3441 44.4021 35.7673 44.1481 36.106C43.8942 36.4234 43.5555 36.6562 43.1323 36.762L44.5291 39.1324C44.5714 39.1747 44.5926 39.2171 44.5926 39.2806C44.5926 39.4499 44.5079 39.598 44.3174 39.725C44.127 39.8732 43.9365 39.9366 43.7249 39.9366C43.5132 39.9366 43.3651 39.8308 43.2592 39.6403L41.7566 36.9525H40.8677V39.4922C40.8677 39.6192 40.8042 39.7038 40.6561 39.7885C40.5291 39.852 40.3598 39.8943 40.1693 39.8943C39.9788 39.8943 39.8307 39.852 39.6825 39.7885C39.5344 39.6827 39.4709 39.598 39.4709 39.471ZM40.8465 35.9366H42.0106C42.7725 35.9366 43.1534 35.598 43.1534 34.8996C43.1534 34.2012 42.7725 33.8626 42.0106 33.8626H40.8465V35.9366Z" fill="#737373"/>
<path d="M46.1587 39.4707V33.1638C46.1587 33.0369 46.2222 32.931 46.3703 32.8675C46.4973 32.804 46.6666 32.7617 46.8571 32.7617C47.0476 32.7617 47.2169 32.804 47.3439 32.8675C47.4709 32.931 47.5555 33.0369 47.5555 33.1638V39.4707C47.5555 39.5977 47.492 39.6824 47.3439 39.767C47.2169 39.8305 47.0476 39.8728 46.8571 39.8728C46.6666 39.8728 46.4973 39.8305 46.3703 39.767C46.2434 39.6824 46.1587 39.5977 46.1587 39.4707Z" fill="#737373"/>
<path d="M49.3968 37.6926V34.9836C49.3968 34.2217 49.6296 33.6503 50.0741 33.2905C50.5185 32.9307 51.1111 32.7402 51.8518 32.7402C52.5926 32.7402 53.2063 32.9095 53.6719 33.2482C54.1376 33.5868 54.3704 34.0312 54.3704 34.5815C54.3704 34.8143 54.3069 34.9836 54.201 35.0683C54.0952 35.1529 53.9259 35.1953 53.6719 35.1953C53.2275 35.1953 52.9947 35.0683 52.9947 34.7931C52.9947 34.7085 52.9735 34.645 52.9735 34.5815C52.9735 34.518 52.9312 34.4334 52.8889 34.3487C52.8465 34.2429 52.7831 34.1582 52.7196 34.0947C52.6561 34.0312 52.5503 33.9677 52.4021 33.9254C52.254 33.8831 52.0846 33.8619 51.8942 33.8619C51.1534 33.8619 50.7725 34.2429 50.7725 34.9836V37.6926C50.7725 38.4334 51.1534 38.8143 51.9153 38.8143C52.1481 38.8143 52.3386 38.772 52.4868 38.7085C52.6349 38.645 52.7407 38.5603 52.8254 38.4334C52.8889 38.3064 52.9312 38.2005 52.9735 38.1159C53.0159 38.0312 53.0159 37.9043 53.0159 37.7773C53.037 37.5021 53.2698 37.3752 53.6931 37.3752C53.9471 37.3752 54.1164 37.4175 54.2222 37.5021C54.328 37.5868 54.3915 37.7561 54.3915 37.9889C54.3915 38.5815 54.1587 39.0471 53.6931 39.3857C53.2275 39.7455 52.6137 39.9148 51.873 39.9148C51.1534 39.9148 50.5608 39.7455 50.1164 39.3857C49.6296 39.0259 49.3968 38.4545 49.3968 37.6926Z" fill="#737373"/>
<path d="M56 39.4707V33.1638C56 33.0369 56.0635 32.931 56.2116 32.8675C56.3386 32.804 56.5079 32.7617 56.6984 32.7617C56.8889 32.7617 57.0582 32.804 57.1852 32.8675C57.3122 32.931 57.3756 33.0369 57.3756 33.1638V39.4707C57.3756 39.5977 57.3122 39.6824 57.164 39.767C57.0159 39.8305 56.8677 39.8728 56.6772 39.8728C56.4868 39.8728 56.3174 39.8305 56.1905 39.767C56.0635 39.6824 56 39.5977 56 39.4707Z" fill="#737373"/>
<path d="M58.7936 33.312C58.7936 33.1638 58.836 33.0369 58.8995 32.931C58.9629 32.8252 59.0899 32.7617 59.2169 32.7617H63.7037C63.8518 32.7617 63.9576 32.8252 64.0211 32.931C64.0846 33.0369 64.127 33.1638 64.127 33.312C64.127 33.4601 64.0846 33.5871 64.0211 33.7141C63.9365 33.8199 63.8307 33.8834 63.7037 33.8834H62.1587V39.4707C62.1587 39.5977 62.0952 39.6824 61.9471 39.767C61.7989 39.8305 61.6508 39.8728 61.4603 39.8728C61.2698 39.8728 61.1005 39.8305 60.9735 39.767C60.8465 39.7035 60.783 39.5977 60.783 39.4707V33.8623H59.2169C59.0899 33.8623 58.9841 33.7988 58.8995 33.6929C58.836 33.6083 58.7936 33.4601 58.7936 33.312Z" fill="#737373"/>
<path d="M65.545 39.4707V33.1638C65.545 33.0369 65.6085 32.9522 65.7143 32.8675C65.8413 32.804 65.9683 32.7617 66.1376 32.7617H69.9047C70.0529 32.7617 70.1587 32.8252 70.2222 32.931C70.2857 33.0369 70.328 33.1638 70.328 33.312C70.328 33.4601 70.2857 33.6083 70.2222 33.7141C70.1375 33.8199 70.0317 33.8834 69.9047 33.8834H66.8995V35.8305H68.5079C68.6349 35.8305 68.7407 35.8728 68.8254 35.9787C68.91 36.0845 68.9312 36.1903 68.9312 36.3384C68.9312 36.4654 68.8889 36.5712 68.8254 36.6771C68.7407 36.7829 68.6349 36.8252 68.5079 36.8252H66.8995V38.7723H69.9047C70.0317 38.7723 70.1375 38.8358 70.2222 38.9416C70.3069 39.0474 70.328 39.1956 70.328 39.3437C70.328 39.4919 70.2857 39.6189 70.2222 39.7247C70.1587 39.8305 70.0317 39.894 69.9047 39.894H66.1587C65.9894 39.894 65.8624 39.8517 65.7354 39.7882C65.6085 39.6824 65.545 39.5977 65.545 39.4707Z" fill="#737373"/>
<path d="M74.6032 39.4707V33.1638C74.6032 33.0369 74.6667 32.9522 74.7725 32.8675C74.8995 32.804 75.0265 32.7617 75.1958 32.7617H78.963C79.1111 32.7617 79.2169 32.8252 79.2804 32.931C79.3439 33.0369 79.3863 33.1638 79.3863 33.312C79.3863 33.4601 79.3439 33.6083 79.2804 33.7141C79.1958 33.8199 79.09 33.8834 78.963 33.8834H75.9577V35.8305H77.5661C77.6931 35.8305 77.7989 35.8728 77.8836 35.9787C77.9683 36.0845 78.0106 36.1903 78.0106 36.3384C78.0106 36.4654 77.9683 36.5712 77.9048 36.6771C77.8413 36.7829 77.7143 36.8252 77.5873 36.8252H75.9788V38.7723H78.9841C79.1111 38.7723 79.2169 38.8358 79.3016 38.9416C79.3863 39.0474 79.4074 39.1956 79.4074 39.3437C79.4074 39.4919 79.3651 39.6189 79.3016 39.7247C79.2381 39.8305 79.1111 39.894 78.9841 39.894H75.2169C75.0476 39.894 74.9206 39.8517 74.7937 39.7882C74.6455 39.6824 74.6032 39.5977 74.6032 39.4707Z" fill="#737373"/>
<path d="M80.8677 39.4704V33.1635C80.8677 33.0365 80.9312 32.9307 81.0793 32.8672C81.2063 32.8037 81.3756 32.7614 81.5661 32.7614C81.8201 32.7614 82.0105 32.8037 82.1587 32.8884C82.2857 32.973 82.4338 33.1635 82.6031 33.4386L84.6561 37.0577V33.1423C84.6561 33.0154 84.7196 32.9095 84.8466 32.8461C84.9735 32.7826 85.1429 32.7402 85.3333 32.7402C85.5238 32.7402 85.6931 32.7826 85.8201 32.8461C85.9471 32.9095 86.0318 33.0154 86.0318 33.1423V39.4492C86.0318 39.5762 85.9683 39.6609 85.8201 39.7455C85.6931 39.809 85.5238 39.8513 85.3333 39.8513C84.9524 39.8513 84.6984 39.7244 84.5503 39.4492L82.2434 35.555V39.4704C82.2434 39.5974 82.1799 39.682 82.0317 39.7667C81.9047 39.8302 81.7354 39.8725 81.5449 39.8725C81.3545 39.8725 81.1851 39.8302 81.0582 39.7667C80.9312 39.682 80.8677 39.5974 80.8677 39.4704Z" fill="#737373"/>
<path d="M90.709 39.471V33.1642C90.709 33.0583 90.7513 32.9737 90.836 32.889C90.9206 32.8044 91.0264 32.7832 91.1534 32.7832H93.2487C94.9206 32.7832 95.7672 33.4605 95.7672 34.815C95.7672 35.3441 95.6402 35.7673 95.3862 36.106C95.1323 36.4234 94.7936 36.6562 94.3703 36.762L95.7672 39.1324C95.8095 39.1747 95.8307 39.2171 95.8307 39.2806C95.8307 39.4499 95.746 39.598 95.5555 39.725C95.3651 39.8732 95.1746 39.9366 94.9629 39.9366C94.7513 39.9366 94.6031 39.8308 94.4973 39.6403L92.9947 36.9525H92.1058V39.4922C92.1058 39.6192 92.0423 39.7038 91.8942 39.7885C91.7672 39.852 91.5979 39.8943 91.4074 39.8943C91.2169 39.8943 91.0688 39.852 90.9206 39.7885C90.7725 39.6827 90.709 39.598 90.709 39.471ZM92.0846 35.9366H93.2487C94.0106 35.9366 94.3915 35.598 94.3915 34.8996C94.3915 34.2012 94.0106 33.8626 93.2487 33.8626H92.0846V35.9366Z" fill="#737373"/>
<path d="M97.3968 39.4707V33.1638C97.3968 33.0369 97.4603 32.9522 97.5661 32.8675C97.6931 32.804 97.8201 32.7617 97.9894 32.7617H101.757C101.905 32.7617 102.011 32.8252 102.074 32.931C102.159 33.0369 102.18 33.1638 102.18 33.312C102.18 33.4601 102.138 33.6083 102.074 33.7141C101.989 33.8199 101.884 33.8834 101.757 33.8834H98.7513V35.8305H100.36C100.487 35.8305 100.593 35.8728 100.677 35.9787C100.762 36.0845 100.783 36.1903 100.783 36.3384C100.783 36.4654 100.741 36.5712 100.677 36.6771C100.593 36.7829 100.487 36.8252 100.36 36.8252H98.7513V38.7723H101.757C101.884 38.7723 101.989 38.8358 102.074 38.9416C102.159 39.0474 102.18 39.1956 102.18 39.3437C102.18 39.4919 102.138 39.6189 102.074 39.7247C102.011 39.8305 101.884 39.894 101.757 39.894H97.9894C97.8201 39.894 97.6931 39.8517 97.5661 39.7882C97.4603 39.6824 97.3968 39.5977 97.3968 39.4707Z" fill="#737373"/>
<path d="M103.28 38.7508C103.28 38.6027 103.344 38.4545 103.471 38.3064C103.598 38.1582 103.725 38.0736 103.894 38.0736C103.979 38.0736 104.085 38.1159 104.212 38.2005C104.317 38.2852 104.444 38.3699 104.55 38.4757C104.656 38.5815 104.825 38.6662 105.016 38.7508C105.228 38.8355 105.439 38.8778 105.693 38.8778C106.032 38.8778 106.307 38.8143 106.54 38.6662C106.772 38.518 106.878 38.3064 106.878 38.0312C106.878 37.8408 106.815 37.6714 106.688 37.5233C106.561 37.3751 106.413 37.2482 106.201 37.1423C105.989 37.0365 105.778 36.9519 105.545 36.8461C105.312 36.7614 105.058 36.6556 104.825 36.5286C104.571 36.4016 104.36 36.2746 104.148 36.1265C103.937 35.9783 103.788 35.7878 103.661 35.5339C103.534 35.2799 103.471 35.0048 103.471 34.7085C103.471 34.3699 103.556 34.0524 103.704 33.7773C103.852 33.5021 104.063 33.3117 104.317 33.1635C104.571 33.0154 104.847 32.9095 105.143 32.8461C105.439 32.7826 105.735 32.7402 106.074 32.7402C106.265 32.7402 106.455 32.7614 106.645 32.7826C106.857 32.8037 107.069 32.8461 107.302 32.8884C107.534 32.9519 107.725 33.0154 107.873 33.1423C108.021 33.2482 108.085 33.3963 108.085 33.5445C108.085 33.6926 108.042 33.8408 107.936 33.9889C107.831 34.1371 107.704 34.2217 107.534 34.2217C107.471 34.2217 107.302 34.1582 107.026 34.0312C106.751 33.9043 106.434 33.8408 106.074 33.8408C105.693 33.8408 105.397 33.9043 105.185 34.0312C104.974 34.1582 104.868 34.3487 104.868 34.5815C104.868 34.772 104.952 34.9413 105.122 35.0683C105.291 35.2164 105.503 35.3222 105.757 35.4069C106.011 35.4916 106.286 35.5974 106.582 35.7455C106.878 35.8725 107.153 36.0207 107.386 36.1688C107.64 36.3169 107.852 36.5498 108.021 36.8461C108.19 37.1423 108.275 37.481 108.275 37.8831C108.275 38.5392 108.042 39.0683 107.577 39.4281C107.111 39.7878 106.497 39.9783 105.757 39.9783C105.079 39.9783 104.508 39.8513 104.021 39.5974C103.534 39.3222 103.28 39.0471 103.28 38.7508Z" fill="#737373"/>
<path d="M109.968 39.4707V33.1638C109.968 33.0369 110.032 32.9522 110.138 32.8675C110.265 32.804 110.392 32.7617 110.561 32.7617H114.328C114.476 32.7617 114.582 32.8252 114.645 32.931C114.709 33.0369 114.751 33.1638 114.751 33.312C114.751 33.4601 114.709 33.6083 114.645 33.7141C114.561 33.8199 114.455 33.8834 114.328 33.8834H111.323V35.8305H112.931C113.058 35.8305 113.164 35.8728 113.249 35.9787C113.333 36.0845 113.354 36.1903 113.354 36.3384C113.354 36.4654 113.312 36.5712 113.249 36.6771C113.185 36.7829 113.058 36.8252 112.931 36.8252H111.323V38.7723H114.328C114.455 38.7723 114.561 38.8358 114.645 38.9416C114.73 39.0474 114.751 39.1956 114.751 39.3437C114.751 39.4919 114.709 39.6189 114.645 39.7247C114.582 39.8305 114.455 39.894 114.328 39.894H110.561C110.392 39.894 110.265 39.8517 110.138 39.7882C110.032 39.6824 109.968 39.5977 109.968 39.4707Z" fill="#737373"/>
<path d="M122.794 37.6926V33.1423C122.794 33.0154 122.857 32.9095 123.005 32.8461C123.132 32.7826 123.302 32.7402 123.492 32.7402C123.683 32.7402 123.852 32.7826 123.979 32.8461C124.106 32.9095 124.169 33.0154 124.169 33.1423V37.6926C124.169 38.4334 124.55 38.8143 125.333 38.8143C126.116 38.8143 126.497 38.4334 126.497 37.6926V33.1423C126.497 33.0154 126.561 32.9095 126.709 32.8461C126.836 32.7826 127.005 32.7402 127.196 32.7402C127.386 32.7402 127.556 32.7826 127.683 32.8461C127.81 32.9095 127.873 33.0154 127.873 33.1423V37.6926C127.873 38.4545 127.64 39.0259 127.175 39.3857C126.709 39.7455 126.095 39.9148 125.333 39.9148C124.571 39.9148 123.936 39.7455 123.492 39.3857C123.026 39.0259 122.794 38.4757 122.794 37.6926Z" fill="#737373"/>
<path d="M5.96823 32.8885C5.96823 32.8885 6.13754 32.6769 6.37035 32.7404C6.37035 32.7404 6.77246 32.8462 6.92061 33.0155C6.92061 33.0155 7.02643 33.1848 6.94178 33.3542L6.24336 34.8145C6.24336 34.8145 6.11638 34.9838 5.84125 34.9626C5.84125 34.9626 5.67193 34.9626 5.52379 34.8145C5.52379 34.8145 5.31215 34.6028 5.41797 34.3912L5.96823 32.8885Z" fill="#737373"/>
<path d="M119.958 38.3269L120.36 39.6179C120.423 39.7872 120.593 39.8719 120.889 39.8719C121.122 39.8719 121.227 39.8084 121.439 39.7026C121.651 39.5967 121.757 39.4698 121.757 39.3004C121.757 39.2793 121.757 39.2581 121.735 39.1946L119.725 33.184C119.661 33.0359 119.556 32.9089 119.386 32.8243C119.175 32.6973 118.857 32.6973 118.645 32.6973C118.434 32.6973 118.116 32.6973 117.905 32.8243C117.757 32.9089 117.63 33.0359 117.566 33.184L115.556 39.1946C115.534 39.2581 115.534 39.2793 115.534 39.3004C115.534 39.4698 115.64 39.5967 115.852 39.7026C116.063 39.8084 116.169 39.8719 116.402 39.8719C116.698 39.8719 116.868 39.7872 116.931 39.6179L117.333 38.3269H119.958ZM117.63 37.3322L118.645 33.9883L119.661 37.3322H117.63Z" fill="#737373"/>
<path d="M59.2592 20.9735C56.6137 20.9735 54.455 19.0053 54.455 16.5291V15.7249H64.6984C68.2328 15.7249 71.1322 13.037 71.1322 9.75662V5.96826C71.1322 2.66667 68.2539 0 64.6984 0H55.7672C55.2592 0 54.7725 0 54.2645 0.10582C51.365 0.740741 49.3333 3.19577 49.3333 5.96826V8.16931C49.3333 8.67725 49.6931 9.07936 50.1587 9.07936H53.6296C54.074 9.07936 54.455 8.67725 54.455 8.16931V7.61905V6.75132C54.455 5.60846 55.4709 4.67725 56.7407 4.67725H63.746C64.9947 4.67725 66.0317 5.60846 66.0317 6.75132V8.99471C66.0317 10.1376 65.0158 11.0688 63.746 11.0688H46.4127V15.7249H49.3333V16.5291C49.3333 21.5661 53.7989 25.6508 59.2804 25.6508H74.074V20.9735H59.2592Z" fill="#B4B4B4"/>
<path d="M36.5079 4.67725C39.1534 4.67725 41.3121 6.68783 41.3121 9.14286V24.8254C41.3121 25.2698 41.7143 25.6508 42.2222 25.6508H45.5026C46.0105 25.6508 46.4127 25.291 46.4127 24.8254V9.14286C46.4127 4.10582 41.9682 0 36.5079 0H25.9471C25.5026 0 25.1217 0.402117 25.1217 0.910054V24.7407C25.1217 25.2487 25.4815 25.6508 25.9471 25.6508H29.418C29.8624 25.6508 30.2434 25.2487 30.2434 24.7407V4.67725H36.5079Z" fill="#737373"/>
<path d="M7.83067 4.67725H21.291C21.7778 4.67725 22.1799 4.31746 22.1799 3.87302V0.804234C22.1799 0.359789 21.7989 0 21.291 0H7.72485C3.95765 0 0.867706 2.83598 0.867706 6.30688V19.3651C0.867706 22.836 3.93649 25.672 7.72485 25.672H21.291C21.7778 25.672 22.1799 25.3122 22.1799 24.8677V21.7989C22.1799 21.3545 21.7778 20.9947 21.291 20.9947H7.83067C6.83596 20.9947 6.01056 20.2116 6.01056 19.2804V15.7037H14.0529C14.5397 15.7037 14.9418 15.3439 14.9418 14.8995V11.8942C14.9418 11.4497 14.5397 11.0899 14.0529 11.0899H6.01056V6.39154C6.01056 5.46032 6.83596 4.67725 7.83067 4.67725Z" fill="#737373"/>
<path d="M127.873 16.8039C127.873 16.5711 127.873 16.3383 127.852 16.0843C127.598 13.2272 124.656 11.0685 121.566 11.0685H113.884H113.693C112.466 11.0685 111.471 9.96793 111.471 8.6346V6.89915C111.471 5.67164 112.55 4.67693 113.905 4.67693H116.931H116.952H124.614C125.016 4.67693 125.354 4.44412 125.481 4.1055C125.524 4.02084 125.524 3.93619 125.524 3.85153V0.803914C125.524 0.35947 125.122 -0.0214844 124.614 -0.0214844H112.656C109.185 -0.0214844 106.328 2.58169 106.328 5.79862V9.43884C106.328 12.9097 108.931 15.7245 112.148 15.7245H120.529C121.757 15.7245 122.751 16.8251 122.751 18.1584V18.7298C122.751 19.9574 121.672 20.9521 120.339 20.9521H107.259C106.857 20.9521 106.518 21.1849 106.392 21.5235C106.349 21.6082 106.349 21.6928 106.349 21.7775V24.8251C106.349 25.2695 106.751 25.6505 107.259 25.6505H117.968H121.608C125.079 25.6505 127.873 23.0473 127.873 19.8304V16.8039V16.8039Z" fill="#737373"/>
<path d="M86.0317 0H74.8994C74.455 0 74.074 0.402117 74.074 0.910054V16C74.074 16.5079 74.4338 16.9101 74.8994 16.9101H78.3703C78.8148 16.9101 79.1957 16.5079 79.1957 16V4.67725H85.4603C88.1058 4.67725 90.2645 6.68783 90.2645 9.14286V17.3757C90.2645 19.8307 88.1058 20.9736 85.4603 20.9736L74.074 20.9947V25.672H85.4603C90.9206 25.672 95.365 22.455 95.365 17.3968V9.10053C95.365 4.25397 91.3015 0 86.0317 0Z" fill="#737373"/>
<path d="M103.407 16.1475V7.57607C103.407 7.06813 103.048 6.66602 102.582 6.66602H99.1323C98.6878 6.66602 98.3069 7.06813 98.3069 7.57607V16.1475V24.7189C98.3069 25.2269 98.6666 25.629 99.1323 25.629H102.582C103.026 25.629 103.407 25.2269 103.407 24.7189V16.1475Z" fill="#737373"/>
<path d="M103.407 1.94709V0.910054C103.407 0.402117 103.048 0 102.582 0H99.1323C98.6878 0 98.3069 0.402117 98.3069 0.910054V1.94709V3.7672C98.3069 4.27513 98.6666 4.67725 99.1323 4.67725H102.582C103.026 4.67725 103.407 4.27513 103.407 3.7672V1.94709Z" fill="#737373"/>
</g>
<defs>
<clipPath id="clip0">
<rect width="130" height="40" fill="white"/>
</clipPath>
</defs>
</svg>
