<svg width="57" height="40" viewBox="0 0 57 40" fill="none" xmlns="http://www.w3.org/2000/svg">
<g clip-path="url(#clip0)">
<path d="M23.6785 4.36598C25.5114 2.4562 28.0631 1.2718 30.8853 1.2718C34.6369 1.2718 37.91 3.36373 39.653 6.46925C41.1677 5.79245 42.8443 5.416 44.6084 5.416C51.3748 5.416 56.8604 10.9494 56.8604 17.7749C56.8604 24.6012 51.3748 30.1347 44.6084 30.1347C43.7826 30.1347 42.9755 30.0521 42.195 29.8942C40.6601 32.6322 37.7351 34.4821 34.3778 34.4821C32.9724 34.4821 31.6431 34.1574 30.4595 33.5802C28.9035 37.2403 25.2782 39.8066 21.053 39.8066C16.653 39.8066 12.9031 37.0225 11.4637 33.118C10.8346 33.2515 10.1829 33.3212 9.51421 33.3212C4.27546 33.3212 0.0284424 29.0304 0.0284424 23.7366C0.0284424 20.1891 1.93661 17.0917 4.77173 15.4345C4.18803 14.0914 3.86339 12.6091 3.86339 11.0506C3.86339 4.96264 8.80583 0.0274818 14.9019 0.0274818C18.481 0.0274818 21.6618 1.7292 23.6785 4.36598Z" fill="#737373"/>
<path d="M8.26004 20.6548C8.22442 20.7479 8.27299 20.7673 8.28432 20.7835C8.39119 20.8613 8.49967 20.9171 8.60896 20.9795C9.18862 21.2871 9.73589 21.377 10.3083 21.377C11.474 21.377 12.1978 20.7568 12.1978 19.7586V19.7392C12.1978 18.8163 11.3809 18.4811 10.6143 18.2391L10.5147 18.2067C9.93666 18.0188 9.43796 17.8569 9.43796 17.4764V17.4562C9.43796 17.1307 9.72941 16.8911 10.1812 16.8911C10.6831 16.8911 11.2789 17.0579 11.6627 17.27C11.6627 17.27 11.7752 17.3429 11.8165 17.2336C11.8392 17.1753 12.0335 16.6523 12.0537 16.5956C12.0756 16.5341 12.0367 16.4888 11.997 16.4645C11.559 16.1981 10.9535 16.016 10.3269 16.016L10.2103 16.0168C9.14328 16.0168 8.39847 16.6612 8.39847 17.5849V17.6043C8.39847 18.5783 9.22019 18.894 9.99009 19.1142L10.114 19.1522C10.675 19.3247 11.1583 19.4728 11.1583 19.8679V19.8873C11.1583 20.2484 10.8442 20.5172 10.3374 20.5172C10.1407 20.5172 9.51325 20.5131 8.83564 20.0849C8.75388 20.0371 8.70611 20.0023 8.64296 19.9642C8.60977 19.9432 8.52639 19.9068 8.48995 20.0169L8.26004 20.6548Z" fill="white"/>
<path d="M25.3266 20.6548C25.291 20.7479 25.3396 20.7673 25.3509 20.7835C25.4578 20.8613 25.5663 20.9171 25.6756 20.9795C26.2552 21.2871 26.8025 21.377 27.3748 21.377C28.5406 21.377 29.2644 20.7568 29.2644 19.7586V19.7392C29.2644 18.8163 28.4475 18.4811 27.6809 18.2391L27.5813 18.2067C27.0033 18.0188 26.5046 17.8569 26.5046 17.4764V17.4562C26.5046 17.1307 26.796 16.8911 27.2477 16.8911C27.7497 16.8911 28.3455 17.0579 28.7293 17.27C28.7293 17.27 28.8418 17.3429 28.8831 17.2336C28.9058 17.1753 29.1 16.6523 29.1203 16.5956C29.1421 16.5341 29.1033 16.4888 29.0636 16.4645C28.6256 16.1981 28.0201 16.016 27.3935 16.016L27.2769 16.0168C26.2099 16.0168 25.4651 16.6612 25.4651 17.5849V17.6043C25.4651 18.5783 26.2868 18.894 27.0567 19.1142L27.1805 19.1522C27.7416 19.3247 28.2257 19.4728 28.2257 19.8679V19.8873C28.2257 20.2484 27.9108 20.5172 27.404 20.5172C27.2073 20.5172 26.5798 20.5131 25.9022 20.0849C25.8205 20.0371 25.7719 20.0039 25.7104 19.9642C25.6893 19.9505 25.5905 19.9124 25.5565 20.0169L25.3266 20.6548Z" fill="white"/>
<path d="M36.9775 18.6988C36.9775 19.2631 36.8722 19.7075 36.665 20.0216C36.4602 20.3325 36.1501 20.4839 35.7178 20.4839C35.2847 20.4839 34.9762 20.3333 34.7746 20.0216C34.5706 19.7083 34.467 19.2631 34.467 18.6988C34.467 18.1353 34.5706 17.6917 34.7746 17.3808C34.9762 17.0732 35.2847 16.9234 35.7178 16.9234C36.1501 16.9234 36.4602 17.0732 36.6658 17.3808C36.8722 17.6917 36.9775 18.1353 36.9775 18.6988ZM37.9506 17.6528C37.8551 17.3298 37.7061 17.0448 37.5078 16.8076C37.3094 16.5696 37.0584 16.3786 36.7605 16.2393C36.4634 16.1009 36.112 16.0304 35.7178 16.0304C35.3227 16.0304 34.9714 16.1009 34.6742 16.2393C34.3763 16.3786 34.1254 16.5696 33.9262 16.8076C33.7287 17.0456 33.5797 17.3306 33.4834 17.6528C33.3886 17.9742 33.3409 18.3256 33.3409 18.6988C33.3409 19.072 33.3886 19.4242 33.4834 19.7448C33.5797 20.067 33.7279 20.3519 33.927 20.5899C34.1254 20.828 34.3771 21.0182 34.6742 21.1534C34.9722 21.2886 35.3227 21.3574 35.7178 21.3574C36.112 21.3574 36.4626 21.2886 36.7605 21.1534C37.0576 21.0182 37.3094 20.828 37.5078 20.5899C37.7061 20.3527 37.8551 20.0678 37.9506 19.7448C38.0461 19.4234 38.0939 19.0712 38.0939 18.6988C38.0939 18.3264 38.0461 17.9742 37.9506 17.6528Z" fill="white"/>
<path d="M45.9417 20.3338C45.9093 20.2391 45.8178 20.2747 45.8178 20.2747C45.6761 20.3289 45.5255 20.3791 45.3653 20.4042C45.2025 20.4293 45.0236 20.4423 44.8317 20.4423C44.3606 20.4423 43.9865 20.3022 43.7186 20.0253C43.4498 19.7485 43.2992 19.3008 43.3008 18.6952C43.3025 18.1439 43.4352 17.7294 43.6741 17.4137C43.9113 17.0995 44.2723 16.9384 44.754 16.9384C45.1556 16.9384 45.4616 16.9846 45.7822 17.0858C45.7822 17.0858 45.8591 17.119 45.8955 17.0186C45.9805 16.7822 46.0437 16.613 46.1343 16.3531C46.1602 16.2794 46.0971 16.2479 46.0744 16.239C45.9481 16.1896 45.6502 16.1094 45.4252 16.0754C45.2147 16.0431 44.9686 16.0261 44.6949 16.0261C44.2861 16.0261 43.9218 16.0957 43.6101 16.2349C43.2992 16.3734 43.0353 16.5644 42.8264 16.8024C42.6176 17.0404 42.4589 17.3254 42.3528 17.6476C42.2476 17.969 42.1942 18.322 42.1942 18.6952C42.1942 19.5024 42.4119 20.1549 42.8418 20.6325C43.2725 21.1118 43.9194 21.3555 44.7629 21.3555C45.2616 21.3555 45.7733 21.2543 46.1408 21.1094C46.1408 21.1094 46.2113 21.0754 46.1805 20.9936L45.9417 20.3338Z" fill="white"/>
<path d="M47.6443 18.1591C47.6904 17.8458 47.777 17.5851 47.9106 17.3819C48.1122 17.0735 48.4198 16.9043 48.8521 16.9043C49.2844 16.9043 49.5702 17.0743 49.775 17.3819C49.9111 17.5851 49.9702 17.8572 49.9936 18.1591H47.6443ZM50.9206 17.4702C50.838 17.1585 50.6332 16.8436 50.4988 16.6995C50.2867 16.4712 50.0794 16.3117 49.8738 16.2226C49.605 16.1077 49.2828 16.0316 48.9299 16.0316C48.5186 16.0316 48.1454 16.1004 47.8426 16.2429C47.539 16.3853 47.284 16.5796 47.084 16.8217C46.8841 17.063 46.7335 17.3504 46.638 17.6766C46.5416 18.0013 46.493 18.355 46.493 18.7283C46.493 19.1079 46.5432 19.4617 46.6428 19.7799C46.7432 20.1005 46.9035 20.383 47.1205 20.617C47.3366 20.8526 47.6151 21.0372 47.9487 21.1659C48.2798 21.2938 48.6821 21.3602 49.1444 21.3594C50.0956 21.3561 50.5968 21.144 50.8032 21.0299C50.8396 21.0096 50.8744 20.974 50.8307 20.872L50.6154 20.2689C50.583 20.179 50.4915 20.2122 50.4915 20.2122C50.2559 20.2996 49.9208 20.4567 49.1395 20.4551C48.6287 20.4543 48.2498 20.3037 48.0126 20.0681C47.7689 19.8268 47.6499 19.4723 47.6289 18.9719L50.923 18.9752C50.923 18.9752 51.0096 18.9736 51.0186 18.8894C51.0218 18.8537 51.1319 18.2126 50.9206 17.4702Z" fill="white"/>
<path d="M21.2629 18.1591C21.3099 17.8458 21.3957 17.5851 21.5293 17.3819C21.7308 17.0735 22.0385 16.9043 22.4708 16.9043C22.9031 16.9043 23.1889 17.0743 23.3945 17.3819C23.5297 17.5851 23.5888 17.8572 23.6123 18.1591H21.2629ZM24.5384 17.4702C24.4559 17.1585 24.2519 16.8436 24.1175 16.6995C23.9054 16.4712 23.6981 16.3117 23.4925 16.2226C23.2237 16.1077 22.9015 16.0316 22.5485 16.0316C22.1381 16.0316 21.764 16.1004 21.4613 16.2429C21.1577 16.3853 20.9026 16.5796 20.7027 16.8217C20.5027 17.063 20.3521 17.3504 20.2566 17.6766C20.1611 18.0013 20.1117 18.355 20.1117 18.7283C20.1117 19.1079 20.1619 19.4617 20.2615 19.7799C20.3619 20.1005 20.5221 20.383 20.7391 20.617C20.9553 20.8526 21.2338 21.0372 21.5673 21.1659C21.8984 21.2938 22.3008 21.3602 22.763 21.3594C23.7143 21.3561 24.2154 21.144 24.4219 21.0299C24.4583 21.0096 24.4931 20.974 24.4494 20.872L24.2349 20.2689C24.2017 20.179 24.1102 20.2122 24.1102 20.2122C23.8746 20.2996 23.5402 20.4567 22.7574 20.4551C22.2473 20.4543 21.8685 20.3037 21.6313 20.0681C21.3876 19.8268 21.2686 19.4723 21.2475 18.9719L24.5417 18.9752C24.5417 18.9752 24.6283 18.9736 24.6372 18.8894C24.6404 18.8537 24.7505 18.2126 24.5384 17.4702Z" fill="white"/>
<path d="M14.1426 20.3166C14.0139 20.2138 13.9961 20.1879 13.9523 20.1215C13.8876 20.0203 13.8544 19.8762 13.8544 19.6933C13.8544 19.4034 13.9499 19.1954 14.1483 19.0553C14.1458 19.0561 14.4316 18.8084 15.1036 18.8173C15.5755 18.8238 15.9973 18.8934 15.9973 18.8934V20.3911H15.9981C15.9981 20.3911 15.5796 20.481 15.1084 20.5093C14.4381 20.5498 14.1402 20.3158 14.1426 20.3166ZM15.4533 18.0021C15.3197 17.9924 15.1465 17.9867 14.9392 17.9867C14.6567 17.9867 14.3838 18.0223 14.128 18.0911C13.8706 18.1599 13.639 18.2676 13.4399 18.4101C13.2399 18.5534 13.0788 18.7364 12.9622 18.9533C12.8457 19.1703 12.7866 19.4261 12.7866 19.7127C12.7866 20.0041 12.8368 20.2575 12.9371 20.4648C13.0375 20.6729 13.1824 20.8461 13.367 20.9797C13.55 21.1133 13.7759 21.2112 14.0382 21.2703C14.2964 21.3294 14.5895 21.3594 14.9101 21.3594C15.2477 21.3594 15.5844 21.3318 15.9107 21.276C16.2337 21.2209 16.6304 21.1408 16.7405 21.1157C16.8498 21.0898 16.9712 21.0566 16.9712 21.0566C17.053 21.0364 17.0465 20.9489 17.0465 20.9489L17.0449 17.9365C17.0449 17.2759 16.8684 16.7861 16.5211 16.4825C16.1754 16.1797 15.6662 16.0267 15.008 16.0267C14.7611 16.0267 14.3636 16.0607 14.1256 16.1085C14.1256 16.1085 13.4059 16.2477 13.1096 16.4793C13.1096 16.4793 13.0448 16.5197 13.0804 16.6104L13.3136 17.237C13.3427 17.318 13.4213 17.2905 13.4213 17.2905C13.4213 17.2905 13.4464 17.2807 13.4755 17.2637C14.1094 16.9189 14.9109 16.9294 14.9109 16.9294C15.2671 16.9294 15.5407 17.0006 15.7253 17.1423C15.905 17.2799 15.9965 17.488 15.9965 17.9268V18.066C15.7132 18.0255 15.4533 18.0021 15.4533 18.0021Z" fill="white"/>
<path d="M42.022 16.3047C42.0471 16.2302 41.9945 16.1946 41.9727 16.1865C41.9168 16.1646 41.6367 16.1055 41.4205 16.0917C41.0068 16.0666 40.7769 16.1363 40.5713 16.2286C40.3673 16.3208 40.1406 16.4698 40.0143 16.639V16.2383C40.0143 16.1824 39.9746 16.1379 39.9196 16.1379H39.0752C39.0201 16.1379 38.9805 16.1824 38.9805 16.2383V21.1516C38.9805 21.2066 39.0258 21.252 39.0809 21.252H39.9463C40.0013 21.252 40.0459 21.2066 40.0459 21.1516V18.6969C40.0459 18.3674 40.0823 18.0388 40.1552 17.8323C40.2264 17.6283 40.3236 17.4648 40.4434 17.3474C40.564 17.2308 40.7008 17.149 40.8506 17.1029C41.0036 17.0559 41.1728 17.0406 41.2926 17.0406C41.465 17.0406 41.6545 17.0851 41.6545 17.0851C41.7176 17.0924 41.7533 17.0535 41.7743 16.996C41.831 16.8455 41.9913 16.3945 42.022 16.3047Z" fill="white"/>
<path d="M33.8986 14.0279C33.7934 13.9956 33.6978 13.9737 33.5732 13.9502C33.4469 13.9276 33.2963 13.9162 33.1255 13.9162C32.5296 13.9162 32.0601 14.0846 31.7306 14.4165C31.4027 14.7468 31.1801 15.2496 31.0683 15.911L31.0279 16.1336H30.2798C30.2798 16.1336 30.1891 16.1304 30.1697 16.2292L30.0475 16.9149C30.0386 16.9796 30.0669 17.0209 30.1543 17.0209H30.8821L30.1438 21.1433C30.0863 21.4752 30.0199 21.748 29.9463 21.9553C29.8742 22.1593 29.8038 22.3123 29.7164 22.424C29.6322 22.5309 29.5528 22.6102 29.4152 22.6564C29.3019 22.6944 29.1707 22.7122 29.0274 22.7122C28.9481 22.7122 28.842 22.6993 28.7635 22.6831C28.6858 22.6677 28.6445 22.6507 28.5854 22.6256C28.5854 22.6256 28.5004 22.5932 28.4664 22.6782C28.4397 22.7487 28.2454 23.2822 28.2219 23.3477C28.1992 23.4133 28.2316 23.4643 28.2729 23.4797C28.37 23.5137 28.4421 23.5364 28.574 23.5679C28.757 23.6109 28.9116 23.6133 29.0566 23.6133C29.3593 23.6133 29.6362 23.5704 29.8653 23.4878C30.0952 23.4044 30.296 23.2595 30.4741 23.0636C30.666 22.8515 30.7866 22.6297 30.9016 22.3261C31.0157 22.0265 31.1137 21.6541 31.1914 21.2202L31.9338 17.0209H33.0186C33.0186 17.0209 33.1101 17.0242 33.1287 16.9246L33.2518 16.2397C33.2599 16.1741 33.2323 16.1336 33.1441 16.1336H32.0908C32.0965 16.1102 32.1443 15.7394 32.2649 15.3905C32.3167 15.2423 32.4138 15.1217 32.4956 15.0391C32.5766 14.9581 32.6697 14.9007 32.7717 14.8675C32.8761 14.8335 32.9951 14.8173 33.1255 14.8173C33.2242 14.8173 33.3222 14.8286 33.3959 14.844C33.4979 14.8658 33.5375 14.8772 33.5642 14.8853C33.6719 14.9177 33.6865 14.8861 33.7075 14.8343L33.9593 14.1429C33.9852 14.0684 33.9213 14.0368 33.8986 14.0279Z" fill="white"/>
<path d="M19.1826 21.1524C19.1826 21.2074 19.1429 21.252 19.0879 21.252H18.2143C18.1593 21.252 18.1204 21.2074 18.1204 21.1524V14.1221C18.1204 14.067 18.1593 14.0225 18.2143 14.0225H19.0879C19.1429 14.0225 19.1826 14.067 19.1826 14.1221V21.1524Z" fill="white"/>
</g>
<defs>
<clipPath id="clip0">
<rect width="56.8889" height="40" fill="white"/>
</clipPath>
</defs>
</svg>
