<svg width="40" height="40" viewBox="0 0 40 40" fill="none" xmlns="http://www.w3.org/2000/svg">
<path d="M20.0003 2.85742H7.75538C6.45636 2.85742 5.21055 3.37346 4.292 4.292C3.37346 5.21055 2.85742 6.45636 2.85742 7.75538V20.0003H20.0003V2.85742ZM37.1431 20.0003V7.75538C37.1431 6.45636 36.6271 5.21055 35.7085 4.292C34.79 3.37346 33.5442 2.85742 32.2452 2.85742H20.0003V20.0003H37.1431Z" fill="white"/>
<path d="M20 20.0002V37.1431H32.2449C33.5439 37.1431 34.7897 36.6271 35.7083 35.7085C36.6268 34.79 37.1429 33.5442 37.1429 32.2451V20.0002H20Z" fill="#004D40"/>
<path d="M2.85742 20.0002V32.2451C2.85742 33.5442 3.37346 34.79 4.292 35.7085C5.21055 36.6271 6.45636 37.1431 7.75538 37.1431H20.0003V20.0002H2.85742Z" fill="white"/>
<path d="M11.4284 7.75562V15.1026M7.75488 11.4291H15.1018M13.8773 26.123L8.97937 31.0209M8.97937 26.123L13.8773 31.0209M24.8977 11.4291H32.2447" stroke="black" stroke-opacity="0.92" stroke-width="0.5" stroke-linecap="round" stroke-linejoin="round"/>
<path d="M26.123 26.1228H31.021M26.123 31.0208H31.021" stroke="white" stroke-width="0.5" stroke-linecap="round" stroke-linejoin="round"/>
<path d="M32.2452 2.85742H7.75538C5.05031 2.85742 2.85742 5.05031 2.85742 7.75538V32.2452C2.85742 34.9502 5.05031 37.1431 7.75538 37.1431H32.2452C34.9502 37.1431 37.1431 34.9502 37.1431 32.2452V7.75538C37.1431 5.05031 34.9502 2.85742 32.2452 2.85742Z" stroke="black" stroke-opacity="0.92" stroke-width="0.5" stroke-linecap="round" stroke-linejoin="round"/>
<path d="M2.85742 20.0003H37.1431M20.0003 2.85742V37.1431V2.85742Z" stroke="black" stroke-opacity="0.92" stroke-width="0.5" stroke-linecap="round" stroke-linejoin="round"/>
</svg>
