<svg width="56" height="56" viewBox="0 0 56 56" fill="none" xmlns="http://www.w3.org/2000/svg">
<path d="M1.75 18.5H54.25V50H1.75V18.5Z" fill="white"/>
<path d="M1.75 8H54.25V18.5H1.75V8Z" fill="#00838F"/>
<path d="M7.00012 14.125C7.48337 14.125 7.87512 13.7332 7.87512 13.25C7.87512 12.7668 7.48337 12.375 7.00012 12.375C6.51687 12.375 6.12512 12.7668 6.12512 13.25C6.12512 13.7332 6.51687 14.125 7.00012 14.125Z" fill="white"/>
<path d="M13.125 14.125C13.6082 14.125 14 13.7332 14 13.25C14 12.7668 13.6082 12.375 13.125 12.375C12.6418 12.375 12.25 12.7668 12.25 13.25C12.25 13.7332 12.6418 14.125 13.125 14.125Z" fill="white"/>
<path d="M19.2499 14.125C19.7331 14.125 20.1249 13.7332 20.1249 13.25C20.1249 12.7668 19.7331 12.375 19.2499 12.375C18.7666 12.375 18.3749 12.7668 18.3749 13.25C18.3749 13.7332 18.7666 14.125 19.2499 14.125Z" fill="white"/>
<path d="M1.75 18.5V50H54.25V18.5H1.75ZM1.75 8H54.25V18.5H1.75V8Z" stroke="#003668" stroke-width="0.5" stroke-linecap="round" stroke-linejoin="round"/>
<path d="M38.5001 27.25L44.6251 34.25L38.5001 41.25M17.5001 27.25L11.3751 34.25L17.5001 41.25M31.5001 25.5L24.5001 43" stroke="#003668" stroke-width="0.5" stroke-linecap="round" stroke-linejoin="round"/>
</svg>
