<svg width="40" height="40" viewBox="0 0 40 40" fill="none" xmlns="http://www.w3.org/2000/svg">
<path d="M23.1375 18.7503C23.7562 18.9191 23.925 20.4378 23.925 20.8878C23.925 21.3378 23.6438 24.1503 22.2375 24.1503H22.1812C21.8024 25.6684 20.9799 27.0392 19.8187 28.0878V28.5941C19.8187 29.4941 19.8188 31.1253 24.3188 31.7441C24.8813 31.815 25.4307 31.9666 25.95 32.1941H37.875C37.875 32.1941 37.875 28.6503 33.2063 27.6941C28.5375 26.7378 28.875 25.0503 28.875 24.1503V23.2503C31.3015 23.2257 33.7171 22.9237 36.075 22.3503C34.2188 20.4941 32.475 19.7066 32.475 11.9441C32.475 2.8316 23.3625 5.6441 23.3625 5.6441C20.0438 5.6441 18.75 8.0066 18.1875 9.8066C22.125 10.0878 24.7125 13.3503 23.1375 18.7503Z" fill="#140078"/>
<path d="M18.4121 9.8629C18.9184 8.00665 20.2121 5.7004 23.4746 5.7004C23.4746 5.7004 32.4746 2.83165 32.4746 12.0004C32.4746 19.7067 34.2184 20.5504 36.0746 22.4067C33.7146 22.9611 31.2989 23.2442 28.8746 23.2504V24.1504C28.8746 25.0504 28.7059 26.8504 33.2059 27.7504C37.7059 28.6504 37.8746 32.2504 37.8746 32.2504H26.0621" stroke="black" stroke-opacity="0.92" stroke-width="0.5" stroke-linecap="round" stroke-linejoin="round"/>
<path d="M24.4312 31.7996C19.9312 31.1809 19.9313 29.5496 19.9313 28.6496V28.1434C21.0771 27.0822 21.8967 25.7163 22.2937 24.2059C23.6437 24.2059 23.9812 21.3371 23.9812 20.9434C23.9812 20.5496 23.8688 18.9184 23.25 18.7496C25.5 10.8746 18.75 7.49965 12.9 11.5496C10.425 11.5496 9.6375 15.1496 10.5375 18.7496C9.91875 18.7496 9.80625 20.4371 9.80625 20.8871C9.80625 21.3371 10.1438 24.1496 11.4938 24.1496C11.9438 25.7809 13.1813 27.1309 14.25 28.0871V28.6496C14.25 29.5496 13.9125 31.2371 9.35625 31.7996C4.8 32.3621 4.125 36.7496 4.125 36.7496H28.875C28.875 36.7496 28.9312 32.4184 24.4312 31.7996Z" stroke="black" stroke-opacity="0.92" stroke-width="0.5" stroke-linecap="round" stroke-linejoin="round"/>
</svg>
