<svg width="56" height="56" viewBox="0 0 56 56" fill="none" xmlns="http://www.w3.org/2000/svg">
<path d="M49 29.75C49.6894 29.75 50.3721 29.6142 51.0091 29.3504C51.646 29.0865 52.2248 28.6998 52.7123 28.2123C53.1998 27.7248 53.5865 27.146 53.8504 26.5091C54.1142 25.8721 54.25 25.1894 54.25 24.5C54.25 23.8106 54.1142 23.1279 53.8504 22.4909C53.5865 21.854 53.1998 21.2752 52.7123 20.7877C52.2248 20.3002 51.646 19.9135 51.0091 19.6496C50.3721 19.3858 49.6894 19.25 49 19.25V29.75ZM7 15.75C5.60761 15.75 4.27226 16.3031 3.28769 17.2877C2.30312 18.2723 1.75 19.6076 1.75 21V28C1.75 29.3924 2.30312 30.7277 3.28769 31.7123C4.27226 32.6969 5.60761 33.25 7 33.25H17.5V15.75H7Z" fill="#304FFE"/>
<path d="M22.75 15.75H17.5V33.25H22.75C32.2121 33.275 41.4153 36.3427 49 42V7C41.2952 12.4235 32.1679 15.4659 22.75 15.75Z" fill="white"/>
<path d="M49 29.75C49.6894 29.75 50.3721 29.6142 51.0091 29.3504C51.646 29.0865 52.2248 28.6998 52.7123 28.2123C53.1998 27.7248 53.5865 27.146 53.8504 26.5091C54.1142 25.8721 54.25 25.1894 54.25 24.5C54.25 23.8106 54.1142 23.1279 53.8504 22.4909C53.5865 21.854 53.1998 21.2752 52.7123 20.7877C52.2248 20.3002 51.646 19.9135 51.0091 19.6496C50.3721 19.3858 49.6894 19.25 49 19.25M17.5 33.25C17.5 38.5 17.5 45.5 26.25 49L17.5 33.25ZM17.5 15.75V33.25V15.75Z" stroke="#003668" stroke-width="0.5" stroke-miterlimit="10" stroke-linecap="round" stroke-linejoin="round"/>
<path d="M19.25 33.25H7C5.60761 33.25 4.27226 32.6969 3.28769 31.7123C2.30312 30.7277 1.75 29.3924 1.75 28V21C1.75 19.6076 2.30312 18.2723 3.28769 17.2877C4.27226 16.3031 5.60761 15.75 7 15.75H22.75C32.1679 15.4659 41.2952 12.4235 49 7V42C41.4153 36.3427 32.2121 33.275 22.75 33.25H19.25Z" stroke="#003668" stroke-width="0.5" stroke-miterlimit="10" stroke-linecap="round" stroke-linejoin="round"/>
</svg>
