<svg width="56" height="56" viewBox="0 0 56 56" fill="none" xmlns="http://www.w3.org/2000/svg">
<path d="M1.75 18.5H54.25V50H1.75V18.5Z" fill="white"/>
<path d="M1.75 8H54.25V18.5H1.75V8Z" fill="#512DA8"/>
<path d="M7.00018 14.125C7.48343 14.125 7.87518 13.7332 7.87518 13.25C7.87518 12.7668 7.48343 12.375 7.00018 12.375C6.51693 12.375 6.12518 12.7668 6.12518 13.25C6.12518 13.7332 6.51693 14.125 7.00018 14.125Z" fill="white"/>
<path d="M13.125 14.125C13.6082 14.125 14 13.7332 14 13.25C14 12.7668 13.6082 12.375 13.125 12.375C12.6418 12.375 12.25 12.7668 12.25 13.25C12.25 13.7332 12.6418 14.125 13.125 14.125Z" fill="white"/>
<path d="M19.2498 14.125C19.7331 14.125 20.1248 13.7332 20.1248 13.25C20.1248 12.7668 19.7331 12.375 19.2498 12.375C18.7666 12.375 18.3748 12.7668 18.3748 13.25C18.3748 13.7332 18.7666 14.125 19.2498 14.125Z" fill="white"/>
<path d="M1.75 18.5V50H54.25V18.5H1.75ZM1.75 8H54.25V18.5H1.75V8Z" stroke="#003668" stroke-width="0.5" stroke-linecap="round" stroke-linejoin="round"/>
<path d="M46.5 25L35 37.5L27 27.5L15.5 42L8 35H2" stroke="#003668" stroke-width="0.5" stroke-linecap="round" stroke-linejoin="round"/>
</svg>
